<svg xmlns="http://www.w3.org/2000/svg" width="38.6mm" height="164.75" viewBox="0 0 109.41 123.57"><title>calculator</title><path fill="none" stroke="#fff" stroke-linejoin="round" stroke-width="3" d="M37.82 8.69h17.93"/><path d="M56.62 122.06h-48a7.16 7.16 0 0 1-7.12-7.18V8.66A7.16 7.16 0 0 1 8.66 1.5h76.26a7.16 7.16 0 0 1 7.16 7.16v34.06" fill="none" stroke="#fff" stroke-linecap="round" stroke-linejoin="round" stroke-width="3"/><path fill="none" stroke="#fff" stroke-linejoin="round" stroke-width="3" d="M37.82 114.88h17.93"/><path fill="none" stroke="#fff" stroke-linecap="round" stroke-linejoin="round" stroke-width="3" d="M1.5 15.88h90.58m-36.33 91.81H1.5"/><rect x="11.4" y="25.84" width="12.37" height="12.37" rx="3.23" ry="3.23" fill="none" stroke="#fff" stroke-linecap="round" stroke-linejoin="round" stroke-width="3"/><rect x="30.57" y="25.84" width="12.37" height="12.37" rx="3.23" ry="3.23" fill="none" stroke="#fff" stroke-linecap="round" stroke-linejoin="round" stroke-width="3"/><rect x="49.74" y="25.84" width="12.37" height="12.37" rx="3.23" ry="3.23" fill="none" stroke="#fff" stroke-linecap="round" stroke-linejoin="round" stroke-width="3"/><rect x="11.4" y="45.84" width="12.37" height="12.37" rx="3.23" ry="3.23" fill="none" stroke="#fff" stroke-linecap="round" stroke-linejoin="round" stroke-width="3"/><rect x="30.57" y="45.84" width="12.37" height="12.37" rx="3.23" ry="3.23" fill="none" stroke="#fff" stroke-linecap="round" stroke-linejoin="round" stroke-width="3"/><rect x="11.4" y="65.84" width="12.37" height="12.37" rx="3.23" ry="3.23" fill="none" stroke="#fff" stroke-linecap="round" stroke-linejoin="round" stroke-width="3"/><rect x="30.57" y="65.84" width="12.37" height="12.37" rx="3.23" ry="3.23" fill="none" stroke="#fff" stroke-linecap="round" stroke-linejoin="round" stroke-width="3"/><path d="M79.88 61.03V49.1h4.67a4.67 4.67 0 0 1 4.67 4.67m18.66 16.72a92.91 92.91 0 0 1-4.41 26.05 47.38 47.38 0 0 0-1.3 4.87H82.1M79.88 49.1V36.7a4.67 4.67 0 0 0-4.67-4.67 4.67 4.67 0 0 0-4.67 4.67v34.58l-3.22-8.4a5.54 5.54 0 0 0-5.17-3.55 5.54 5.54 0 0 0-5.54 5.54 31 31 0 0 0 4.35 15.94 35.8 35.8 0 0 0 4 5.48c5.74 6.42 7.26 15.11 7.26 15.11m17.01-36.88V52.59h4.67a4.67 4.67 0 0 1 4.67 4.67v11.31" fill="none" stroke="#fff" stroke-linecap="round" stroke-linejoin="round" stroke-width="3"/><path d="M98.57 58.56h4.67a4.67 4.67 0 0 1 4.67 4.67v7.26m-39.37 37.2h36.22v14.38H68.54z" fill="none" stroke="#fff" stroke-linecap="round" stroke-linejoin="round" stroke-width="3"/><circle cx="96.7" cy="114.88" r="1.35" fill="none" stroke="#fff" stroke-linecap="round" stroke-linejoin="round" stroke-width="3"/></svg>