<svg xmlns="http://www.w3.org/2000/svg" width="35.51mm" height="35.51mm" viewBox="0 0 100.67 100.67"><title>clock</title><circle cx="50.33" cy="50.33" r="48.83" fill="none" stroke="#484f59" stroke-linecap="round" stroke-linejoin="bevel" stroke-width="3"/><circle cx="50.33" cy="50.33" r="42.17" fill="none" stroke="#484f59" stroke-linecap="round" stroke-linejoin="bevel" stroke-width="3"/><path fill="none" stroke="#484f59" stroke-miterlimit="10" stroke-width="3" d="M50.33 12.72v7.81m-18.8-2.77l3.9 6.77m-17.67 7l6.77 3.9m-11.81 14.9h7.81m-2.77 18.81l6.77-3.91m7 17.68l3.9-6.77m14.9 11.8v-7.81m18.81 2.78l-3.91-6.77m17.68-7l-6.77-3.91m11.8-14.9h-7.81m2.78-18.8l-6.77 3.9m-7-17.67l-3.91 6.77"/><circle cx="422.39" cy="684.8" r="2.35" transform="matrix(.75 -.67 .67 .75 -721.05 -178.43)" fill="none" stroke="#484f59" stroke-linecap="round" stroke-linejoin="bevel" stroke-width="3"/><path fill="none" stroke="#484f59" stroke-miterlimit="10" stroke-width="3" d="M32.4 30.28l16.37 18.3m18.7-13.59L51.35 49.41"/></svg>