<svg xmlns="http://www.w3.org/2000/svg" width="105.26" height="35.1mm" viewBox="0 0 78.96 99.5"><title>footer_phone</title><path d="M50.52 69.92v25a3.06 3.06 0 0 1-3.06 3.06H4.56a3.06 3.06 0 0 1-3.06-3.06V4.56A3.06 3.06 0 0 1 4.56 1.5h42.89a3.06 3.06 0 0 1 3.06 3.06v10.86" fill="none" stroke="#b76c00" stroke-linejoin="round" stroke-width="3"/><path fill="none" stroke="#b76c00" stroke-width="3" d="M45.38 69.59v14.62H6.63V14.52h38.75v1.57"/><path fill="none" stroke="#b76c00" stroke-linejoin="round" stroke-width="3" d="M17.82 8.34H34.2m-9.69 81.67h3"/><path d="M50.41 15.71A27 27 0 0 0 29.8 60.25l-6.3 12 11.46-7.28a27 27 0 1 0 15.45-49.26z" fill="none" stroke="#b76c00" stroke-miterlimit="10" stroke-width="3"/></svg>