<svg xmlns="http://www.w3.org/2000/svg" width="30.74mm" height="31.67mm" viewBox="0 0 87.15 89.77"><title>footer_earth</title><path d="M78.45 49.8a38.47 38.47 0 1 1-38.44-38.46m21.21 49.91c-2.82 15.66-11.27 27-21.24 27-12.29 0-22.25-17.23-22.25-38.47s10-38.47 22.25-38.47" fill="none" stroke="#b76c00" stroke-linecap="round" stroke-linejoin="round" stroke-width="3"/><path d="M40.01 37.25v51a38.51 38.51 0 0 0 38-44.77" fill="none" stroke="#b76c00" stroke-linejoin="round" stroke-width="3"/><path d="M39.79 36.25H4.01a38 38 0 0 0 0 27.12h71.94a38.26 38.26 0 0 0 2.51-13.56" fill="none" stroke="#b76c00" stroke-linejoin="round" stroke-width="3"/><path d="M60.89 1.5a24.75 24.75 0 0 0-24.76 24.75c0 13.68 24.76 34.79 24.76 34.79s24.76-21.11 24.76-34.79A24.75 24.75 0 0 0 60.89 1.5zm0 37a12.29 12.29 0 1 1 12.28-12.25 12.29 12.29 0 0 1-12.28 12.3z" fill="none" stroke="#b76c00" stroke-width="3"/><path d="M60.89 38.55a12.29 12.29 0 1 1 12.28-12.3 12.29 12.29 0 0 1-12.28 12.3z" fill="none" stroke="#b76c00" stroke-miterlimit="10" stroke-width="3"/></svg>