<svg xmlns="http://www.w3.org/2000/svg" width="135.95" height="34.32mm" viewBox="0 0 101.97 97.3"><title>icon_1</title><path fill="none" stroke="#b76c00" stroke-miterlimit="10" stroke-width="3" d="M1.5 55.42V95.8h98.97V55.42"/><path fill="none" stroke="#b76c00" stroke-miterlimit="10" stroke-width="3" d="M1.5 1.5h98.97v54.37H1.5z"/><path d="M7.91 44.05a5.63 5.63 0 0 1 5.63 5.63v.33h75v-.33a5.63 5.63 0 0 1 5.63-5.63c.19 0 .36 0 .54.05V13.16a4.76 4.76 0 0 1-.54.05 5.63 5.63 0 0 1-5.63-5.63v-.21H13.52v.21a5.63 5.63 0 0 1-5.63 5.63 5 5 0 0 1-.54-.05V44.1c.24-.01.38-.05.56-.05z" fill="none" stroke="#b76c00" stroke-miterlimit="10" stroke-width="3"/><circle cx="50.98" cy="28.69" r="11.5" fill="none" stroke="#b76c00" stroke-miterlimit="10" stroke-width="3"/><path fill="none" stroke="#b76c00" stroke-miterlimit="10" stroke-width="3" d="M68.65 28.69h17m-17-7h12.67m-12.67 14h12.67m-48-7h-17m17 7H20.65m12.67-14H20.65"/><path fill="none" stroke="#b76c00" stroke-width="3" d="M99.44 63.44H28.8m70.64 23.33H50.36M99.44 76.5H81.17M1.8 88.48h29.15M1.8 70.96h64.38M1.8 81.23h63.96"/></svg>