<svg xmlns="http://www.w3.org/2000/svg" width="44.78mm" height="35.67mm" viewBox="0 0 126.92 101.11"><title>basic_price</title><rect x="80.51" y="39.34" width="44.91" height="22.42" rx="3.5" ry="3.5" fill="none" stroke="#ba7100" stroke-linecap="round" stroke-miterlimit="10" stroke-width="3"/><path d="M119.66 39.34V13.01A11.51 11.51 0 0 0 108.15 1.5H13.01A11.51 11.51 0 0 0 1.5 13.01v75.08A11.51 11.51 0 0 0 13.01 99.6h95.13a11.51 11.51 0 0 0 11.51-11.51V61.76" fill="none" stroke="#ba7100" stroke-linecap="round" stroke-miterlimit="10" stroke-width="3"/><path d="M95.72 99.6a11.51 11.51 0 0 0 11.51-11.51V61.76m0-22.42V13.01A11.51 11.51 0 0 0 95.72 1.5" fill="none" stroke="#ba7100" stroke-linecap="round" stroke-miterlimit="10" stroke-width="3"/><circle cx="92.56" cy="50.55" r="5" fill="none" stroke="#ba7100" stroke-linecap="round" stroke-miterlimit="10" stroke-width="3"/><path fill="none" stroke="#ba7100" stroke-miterlimit="10" stroke-width="3" d="M10.99 12.18v3.6m0 8.59v3.61m0 8.58v3.61m0 8.58v3.61m0 8.58v3.61m0 8.58v3.61m0 8.58v3.61"/></svg>