<?xml version="1.0" standalone="no"?><!DOCTYPE svg PUBLIC "-//W3C//DTD SVG 1.1//EN" "http://www.w3.org/Graphics/SVG/1.1/DTD/svg11.dtd" ><svg xmlns="http://www.w3.org/2000/svg"><metadata></metadata><defs><font id="Google:Roboto Bold:2013" horiz-adv-x="2243"><font-face font-family="Roboto" font-weight="700" font-stretch="normal" units-per-em="2048" panose-1="2 0 0 0 0 0 0 0 0 0" ascent="2146" descent="-555" x-height="0" bbox="-101 -461 2163 1935" underline-thickness="100" underline-position="-150" unicode-range="U+000d-2212" /><missing-glyph horiz-adv-x="510"  /><glyph glyph-name="nonmarkingreturn" unicode="" d="" /><glyph glyph-name="space" unicode=" " d="" /><glyph glyph-name="exclam" unicode="!" d="M426 502 l-292 0 l0 954 l292 0 l0 -954 ZM426 0 l-292 0 l0 256 l292 0 l0 -256 Z" /><glyph glyph-name="quotedbl" unicode="&quot;" d="M280 1288 l-102 -249 l-128 0 l0 524 l230 0 l0 -275 ZM606 1288 l-102 -249 l-128 0 l0 524 l230 0 l0 -275 Z" /><glyph glyph-name="numbersign" unicode="#" d="M650 410 l-192 0 l-71 -410 l-184 0 l72 410 l-227 0 l0 169 l256 0 l51 290 l-232 0 l0 171 l262 0 l73 416 l183 0 l-73 -416 l192 0 l74 416 l183 0 l-73 -416 l220 0 l0 -171 l-250 0 l-51 -290 l225 0 l0 -169 l-254 0 l-72 -410 l-184 0 l72 410 ZM488 579 l191 0 l51 290 l-192 0 l-50 -290 Z" /><glyph glyph-name="dollar" unicode="$" d="M789 383 q0 81 -46.5 132 q-46.5 51 -159.5 95 q-222 81 -329.5 180.5 q-107.5 99.5 -107.5 280.5 q0 168 107.5 275.5 q107.5 107.5 289.5 126.5 l0 215 l159 0 l0 -217 q176 -26 276.5 -147 q100.5 -121 98.5 -314 l-3 -5 l-285 0 q0 118 -48.5 182 q-48.5 64 -132.5 64 q-86 0 -128 -49.5 q-42 -49.5 -42 -131.5 q0 -78 44.5 -126.5 q44.5 -48.5 163.5 -95.5 q221 -87 327.5 -186 q106.5 -99 106.5 -277 q0 -174 -107 -278 q-107 -104 -291 -123 l0 -198 l-159 0 l0 197 q-187 19 -309 132.5 q-122 113.5 -118 333.5 l2 5 l285 0 q0 -134 61.5 -192 q61.5 -58 156.5 -58 q91 0 139.5 48.5 q48.5 48.5 48.5 130.5 Z" /><glyph glyph-name="percent" unicode="%" d="M95 1176 q0 129 83.5 215 q83.5 86 232.5 86 q151 0 234 -85.5 q83 -85.5 83 -215.5 l0 -77 q0 -129 -83 -214 q-83 -85 -232 -85 q-150 0 -234 85 q-84 85 -84 214 l0 77 ZM289 1099 q0 -58 32 -97.5 q32 -39.5 92 -39.5 q58 0 89.5 39.5 q31.5 39.5 31.5 97.5 l0 77 q0 58 -32 98.5 q-32 40.5 -91 40.5 q-59 0 -90.5 -40.5 q-31.5 -40.5 -31.5 -98.5 l0 -77 ZM791 357 q0 128 84 214 q84 86 233 86 q150 0 233.5 -85.5 q83.5 -85.5 83.5 -214.5 l0 -77 q0 -130 -83 -215 q-83 -85 -232 -85 q-150 0 -234.5 85.5 q-84.5 85.5 -84.5 214.5 l0 77 ZM985 280 q0 -57 34.5 -97.5 q34.5 -40.5 90.5 -40.5 q65 0 93 37.5 q28 37.5 28 100.5 l0 77 q0 57 -32 97.5 q-32 40.5 -91 40.5 q-60 0 -91.5 -40.5 q-31.5 -40.5 -31.5 -97.5 l0 -77 ZM461 109 l-142 75 l711 1138 l142 -75 l-711 -1138 Z" /><glyph glyph-name="ampersand" unicode="&amp;" d="M61 392 q0 118 65 203.5 q65 85.5 198 178.5 q-68 92 -101.5 168 q-33.5 76 -33.5 155 q0 173 108 276.5 q108 103.5 289 103.5 q159 0 258.5 -98.5 q99.5 -98.5 99.5 -238.5 q0 -98 -49 -179 q-49 -81 -134 -142 l-93 -66 l276 -322 q36 60 56 130 q20 70 20 148 l218 0 q0 -138 -34 -254 q-34 -116 -104 -206 l208 -244 l-2 -5 l-324 0 l-77 89 q-85 -55 -175 -82.5 q-90 -27.5 -193 -27.5 q-218 0 -347 114.5 q-129 114.5 -129 298.5 ZM552 203 q53 0 106 13.5 q53 13.5 102 40.5 l-300 348 l-19 -13 q-51 -48 -69.5 -93.5 q-18.5 -45.5 -18.5 -91.5 q0 -89 55 -146.5 q55 -57.5 144 -57.5 ZM450 1100 q0 -43 21.5 -88.5 q21.5 -45.5 64.5 -100.5 l86 56 q56 36 75.5 74 q19.5 38 19.5 83 q0 50 -36.5 89 q-36.5 39 -95.5 39 q-65 0 -100 -43.5 q-35 -43.5 -35 -108.5 Z" /><glyph glyph-name="quotesingle" unicode="&#39;" d="M280 1291 l-102 -283 l-128 0 l0 552 l230 0 l0 -269 Z" /><glyph glyph-name="parenleft" unicode="(" d="M124 592 q0 392 152 665.5 q152 273.5 344 354.5 l6 0 l53 -146 q-131 -98 -220 -316 q-89 -218 -89 -556 l0 -26 q0 -339 89 -556.5 q89 -217.5 220 -318.5 l-53 -143 l-6 0 q-192 81 -344 354 q-152 273 -152 666 l0 22 Z" /><glyph glyph-name="parenright" unicode=")" d="M602 570 q0 -383 -158.5 -661.5 q-158.5 -278.5 -352.5 -358.5 l-6 0 l-54 143 q129 98 219 317 q90 219 90 558 l0 26 q0 336 -91 556.5 q-91 220.5 -218 319.5 l54 142 l6 0 q194 -80 352.5 -359 q158.5 -279 158.5 -661 l0 -22 Z" /><glyph glyph-name="asterisk" unicode="*" d="M329 966 l-302 89 l57 177 l297 -123 l-18 347 l187 0 l-19 -353 l291 120 l56 -180 l-306 -89 l200 -265 l-152 -110 l-174 290 l-173 -281 l-153 106 l209 272 Z" /><glyph glyph-name="plus" unicode="+" d="M694 812 l360 0 l0 -252 l-360 0 l0 -414 l-276 0 l0 414 l-362 0 l0 252 l362 0 l0 394 l276 0 l0 -394 Z" /><glyph glyph-name="comma" unicode="," d="M417 13 l-159 -315 l-195 0 l70 324 l0 228 l284 0 l0 -237 Z" /><glyph glyph-name="hyphen" unicode="-" d="M677 510 l-564 0 l0 225 l564 0 l0 -225 Z" /><glyph glyph-name="period" unicode="." d="M436 0 l-292 0 l0 256 l292 0 l0 -256 Z" /><glyph glyph-name="slash" unicode="/" d="M270 -125 l-284 0 l534 1581 l284 0 l-534 -1581 Z" /><glyph glyph-name="zero" unicode="0" d="M1080 567 q0 -289 -132.5 -438.5 q-132.5 -149.5 -358.5 -149.5 q-228 0 -361 149.5 q-133 149.5 -133 438.5 l0 321 q0 288 132.5 438.5 q132.5 150.5 359.5 150.5 q226 0 359.5 -150.5 q133.5 -150.5 133.5 -438.5 l0 -321 ZM789 918 q0 173 -52 253.5 q-52 80.5 -150 80.5 q-99 0 -150 -80 q-51 -80 -51 -254 l0 -379 q0 -176 51.5 -256 q51.5 -80 151.5 -80 q98 0 149 80 q51 80 51 256 l0 379 Z" /><glyph glyph-name="one" unicode="1" d="M759 0 l-292 0 l0 1198 l-296 0 l0 206 l588 52 l0 -1456 Z" /><glyph glyph-name="two" unicode="2" d="M1093 0 l-994 0 l0 191 l471 505 q102 117 145 197.5 q43 80.5 43 149.5 q0 92 -49.5 150.5 q-49.5 58.5 -140.5 58.5 q-101 0 -153.5 -68.5 q-52.5 -68.5 -52.5 -182.5 l-284 0 l-2 6 q-5 197 129.5 333.5 q134.5 136.5 362.5 136.5 q225 0 353.5 -117 q128.5 -117 128.5 -312 q0 -132 -72.5 -243.5 q-72.5 -111.5 -239.5 -292.5 l-259 -283 l2 -5 l612 0 l0 -224 Z" /><glyph glyph-name="three" unicode="3" d="M394 852 l164 0 q104 0 154 54.5 q50 54.5 50 151.5 q0 88 -50 141 q-50 53 -145 53 q-82 0 -138 -48 q-56 -48 -56 -126 l-283 0 l-2 6 q-6 171 131 282 q137 111 340 111 q226 0 360.5 -108 q134.5 -108 134.5 -308 q0 -95 -60 -180.5 q-60 -85.5 -165 -133.5 q121 -43 184.5 -132 q63.5 -89 63.5 -207 q0 -200 -145.5 -314.5 q-145.5 -114.5 -372.5 -114.5 q-203 0 -348.5 107.5 q-145.5 107.5 -140.5 303.5 l2 6 l283 0 q0 -84 60 -138.5 q60 -54.5 152 -54.5 q101 0 159.5 56 q58.5 56 58.5 152 q0 115 -57.5 168.5 q-57.5 53.5 -169.5 53.5 l-164 0 l0 219 Z" /><glyph glyph-name="four" unicode="4" d="M955 542 l165 0 l0 -226 l-165 0 l0 -316 l-291 0 l0 316 l-594 0 l-13 175 l604 965 l294 0 l0 -914 ZM329 542 l335 0 l0 524 l-6 2 l-23 -41 l-306 -485 Z" /><glyph glyph-name="five" unicode="5" d="M136 645 l84 811 l812 0 l0 -234 l-573 0 l-40 -336 q40 30 97 49.5 q57 19.5 126 20.5 q210 3 325.5 -127 q115.5 -130 115.5 -362 q0 -210 -126.5 -349 q-126.5 -139 -364.5 -139 q-201 0 -344 109.5 q-143 109.5 -138 301.5 l2 5 l281 14 q0 -97 55 -151.5 q55 -54.5 144 -54.5 q102 0 150.5 72.5 q48.5 72.5 48.5 189.5 q0 126 -52 202 q-52 76 -154 76 q-84 0 -128.5 -31 q-44.5 -31 -63.5 -84 l-257 17 Z" /><glyph glyph-name="six" unicode="6" d="M684 1477 q82 0 151.5 -15.5 q69.5 -15.5 139.5 -45.5 l-52 -214 q-66 23 -117.5 34.5 q-51.5 11.5 -119.5 11.5 q-133 0 -213.5 -99.5 q-80.5 -99.5 -74.5 -275.5 l3 -5 q49 51 124 80 q75 29 169 29 q195 0 305.5 -138.5 q110.5 -138.5 110.5 -353.5 q0 -220 -136.5 -363 q-136.5 -143 -353.5 -143 q-231 0 -376 156.5 q-145 156.5 -145 433.5 l0 284 q0 286 165 455 q165 169 420 169 ZM617 756 q-81 0 -138 -26 q-57 -26 -88 -71 l0 -97 q0 -173 62.5 -266 q62.5 -93 166.5 -93 q90 0 144.5 82.5 q54.5 82.5 54.5 199.5 q0 121 -55 196 q-55 75 -147 75 Z" /><glyph glyph-name="seven" unicode="7" d="M1089 1231 q-234 -274 -319.5 -511 q-85.5 -237 -122.5 -572 l-14 -148 l-292 0 l14 148 q34 321 146 589.5 q112 268.5 307 493.5 l-748 0 l0 225 l1029 0 l0 -225 Z" /><glyph glyph-name="eight" unicode="8" d="M1050 1070 q0 -109 -57.5 -193 q-57.5 -84 -158.5 -131 q116 -49 183 -140 q67 -91 67 -208 q0 -202 -137 -310.5 q-137 -108.5 -358 -108.5 q-223 0 -360.5 108.5 q-137.5 108.5 -137.5 310.5 q0 118 66.5 208.5 q66.5 90.5 183.5 140.5 q-102 47 -159 130.5 q-57 83.5 -57 192.5 q0 194 127 300.5 q127 106.5 335 106.5 q207 0 335 -106.5 q128 -106.5 128 -300.5 ZM792 418 q0 98 -57 157 q-57 59 -148 59 q-92 0 -147.5 -59 q-55.5 -59 -55.5 -157 q0 -100 56 -157.5 q56 -57.5 149 -57.5 q91 0 147 58 q56 58 56 157 ZM759 1057 q0 88 -46.5 141.5 q-46.5 53.5 -125.5 53.5 q-80 0 -125 -52.5 q-45 -52.5 -45 -142.5 q0 -91 45.5 -144.5 q45.5 -53.5 126.5 -53.5 q79 0 124.5 53.5 q45.5 53.5 45.5 144.5 Z" /><glyph glyph-name="nine" unicode="9" d="M520 203 q115 0 187.5 85.5 q72.5 85.5 72.5 244.5 l0 72 q-49 -62 -116.5 -94 q-67.5 -32 -145.5 -32 q-203 0 -319.5 132.5 q-116.5 132.5 -116.5 358.5 q0 218 138 362.5 q138 144.5 351 144.5 q223 0 362 -153.5 q139 -153.5 139 -431.5 l0 -344 q0 -265 -155.5 -417 q-155.5 -152 -396.5 -152 q-76 0 -156.5 15.5 q-80.5 15.5 -149.5 45.5 l34 211 q65 -25 128.5 -36.5 q63.5 -11.5 143.5 -11.5 ZM567 693 q72 0 126 27 q54 27 87 72 l0 134 q0 160 -56 243 q-56 83 -152 83 q-88 0 -143.5 -82 q-55.5 -82 -55.5 -200 q0 -124 50.5 -200.5 q50.5 -76.5 143.5 -76.5 Z" /><glyph glyph-name="less" unicode="&lt;" d="M339 550 l0 -6 l577 -203 l0 -272 l-862 367 l0 227 l862 366 l0 -272 l-577 -207 Z" /><glyph glyph-name="equal" unicode="=" d="M1032 763 l-896 0 l0 229 l896 0 l0 -229 ZM1032 332 l-896 0 l0 229 l896 0 l0 -229 Z" /><glyph glyph-name="greater" unicode="&gt;" d="M705 548 l0 6 l-586 206 l0 269 l872 -366 l0 -227 l-872 -367 l0 270 l586 209 Z" /><glyph glyph-name="question" unicode="?" d="M324 414 q1 140 41.5 205 q40.5 65 161.5 158 q71 58 113.5 125 q42.5 67 42.5 150 q0 92 -48.5 144 q-48.5 52 -138.5 52 q-74 0 -125.5 -44 q-51.5 -44 -52.5 -129 l-284 0 l-2 6 q-3 192 126.5 294 q129.5 102 337.5 102 q224 0 351.5 -113.5 q127.5 -113.5 127.5 -308.5 q0 -127 -74.5 -235 q-74.5 -108 -186.5 -181 q-61 -47 -80 -94.5 q-19 -47.5 -19 -130.5 l-291 0 ZM617 0 l-294 0 l0 250 l294 0 l0 -250 Z" /><glyph glyph-name="at" unicode="@" d="M1730 513 q-9 -218 -128 -376 q-119 -158 -356 -158 q-78 0 -135 44 q-57 44 -81 123 q-44 -82 -109.5 -123 q-65.5 -41 -153.5 -41 q-141 0 -216.5 119 q-75.5 119 -55.5 315 q25 254 143.5 407 q118.5 153 287.5 153 q116 0 186.5 -26 q70.5 -26 154.5 -80 l-3 -4 l5 0 l-51 -573 q-7 -95 14 -130 q21 -35 57 -35 q115 0 184.5 109 q69.5 109 77.5 276 q16 353 -136.5 551 q-152.5 198 -471.5 198 q-303 0 -484 -213 q-181 -213 -196 -571 q-17 -355 146 -560 q163 -205 469 -205 q85 0 175.5 20 q90.5 20 155.5 50 l38 -147 q-67 -42 -170.5 -65.5 q-103.5 -23.5 -202.5 -23.5 q-396 0 -610.5 249 q-214.5 249 -197.5 682 q18 427 255.5 683.5 q237.5 256.5 625.5 256.5 q387 0 593 -242.5 q206 -242.5 190 -662.5 ZM720 416 q-10 -127 18.5 -192.5 q28.5 -65.5 92.5 -65.5 q56 0 101.5 26 q45.5 26 81.5 96 q0 4 0 6.5 q0 2.5 1 6.5 l44 496 q-23 7 -46 11 q-23 4 -48 4 q-111 0 -169 -96.5 q-58 -96.5 -76 -291.5 Z" /><glyph glyph-name="A" unicode="a" d="M917 314 l-511 0 l-99 -314 l-295 0 l501 1456 l299 0 l499 -1456 l-295 0 l-99 314 ZM478 543 l367 0 l-180 572 l-6 0 l-181 -572 Z" /><glyph glyph-name="B" unicode="b" d="M136 0 l0 1456 l492 0 q257 0 401 -100 q144 -100 144 -299 q0 -101 -53.5 -180.5 q-53.5 -79.5 -155.5 -119.5 q131 -28 196.5 -120 q65.5 -92 65.5 -213 q0 -209 -138 -316.5 q-138 -107.5 -391 -107.5 l-561 0 ZM428 644 l0 -420 l269 0 q116 0 177 50.5 q61 50.5 61 149.5 q0 107 -52 163.5 q-52 56.5 -164 56.5 l-291 0 ZM428 846 l210 0 q117 0 180 48 q63 48 63 140 q0 101 -63.5 149 q-63.5 48 -189.5 48 l-200 0 l0 -385 Z" /><glyph glyph-name="C" unicode="c" d="M1235 495 l2 -6 q4 -235 -143.5 -372.5 q-147.5 -137.5 -409.5 -137.5 q-263 0 -427 169 q-164 169 -164 435 l0 289 q0 265 160 435 q160 170 416 170 q270 0 422 -138.5 q152 -138.5 148 -377.5 l-2 -6 l-284 0 q0 144 -69 220.5 q-69 76.5 -215 76.5 q-131 0 -208 -106.5 q-77 -106.5 -77 -271.5 l0 -291 q0 -167 81 -273.5 q81 -106.5 219 -106.5 q137 0 202.5 73.5 q65.5 73.5 65.5 218.5 l283 0 Z" /><glyph glyph-name="D" unicode="d" d="M136 0 l0 1456 l500 0 q267 0 440 -170.5 q173 -170.5 173 -437.5 l0 -241 q0 -268 -173 -437.5 q-173 -169.5 -440 -169.5 l-500 0 ZM428 1231 l0 -1007 l193 0 q157 0 246 106 q89 106 89 277 l0 243 q0 169 -89 275 q-89 106 -246 106 l-193 0 Z" /><glyph glyph-name="E" unicode="e" d="M1031 640 l-603 0 l0 -416 l705 0 l0 -224 l-997 0 l0 1456 l995 0 l0 -225 l-703 0 l0 -366 l603 0 l0 -225 Z" /><glyph glyph-name="F" unicode="f" d="M1038 605 l-610 0 l0 -605 l-292 0 l0 1456 l1004 0 l0 -225 l-712 0 l0 -401 l610 0 l0 -225 Z" /><glyph glyph-name="G" unicode="g" d="M1254 199 q-65 -86 -202.5 -153 q-137.5 -67 -347.5 -67 q-267 0 -436 166 q-169 166 -169 431 l0 304 q0 264 162.5 430.5 q162.5 166.5 418.5 166.5 q266 0 407.5 -129.5 q141.5 -129.5 144.5 -340.5 l-2 -6 l-275 0 q-8 116 -74 183.5 q-66 67.5 -193 67.5 q-134 0 -216 -103.5 q-82 -103.5 -82 -266.5 l0 -306 q0 -166 85 -269.5 q85 -103.5 229 -103.5 q102 0 164 21 q62 21 94 52 l0 270 l-258 0 l0 202 l550 0 l0 -549 Z" /><glyph glyph-name="H" unicode="h" d="M1313 0 l-291 0 l0 605 l-594 0 l0 -605 l-292 0 l0 1456 l292 0 l0 -626 l594 0 l0 626 l291 0 l0 -1456 Z" /><glyph glyph-name="I" unicode="i" d="M446 0 l-292 0 l0 1456 l292 0 l0 -1456 Z" /><glyph glyph-name="J" unicode="j" d="M746 1456 l291 0 l0 -1019 q0 -211 -137.5 -334.5 q-137.5 -123.5 -347.5 -123.5 q-228 0 -361 111 q-133 111 -128 327 l2 6 l284 0 q0 -115 55 -167.5 q55 -52.5 148 -52.5 q81 0 137.5 62.5 q56.5 62.5 56.5 171.5 l0 1019 Z" /><glyph glyph-name="K" unicode="k" d="M590 608 l-162 0 l0 -608 l-292 0 l0 1456 l292 0 l0 -595 l127 0 l386 595 l357 0 l-490 -678 l529 -778 l-356 0 l-391 608 Z" /><glyph glyph-name="L" unicode="l" d="M428 224 l648 0 l0 -224 l-940 0 l0 1456 l292 0 l0 -1232 Z" /><glyph glyph-name="M" unicode="m" d="M517 1456 l371 -1073 l6 0 l374 1073 l382 0 l0 -1456 l-292 0 l0 434 l28 643 l-6 1 l-390 -1078 l-196 0 l-388 1074 l-6 -1 l28 -639 l0 -434 l-292 0 l0 1456 l381 0 Z" /><glyph glyph-name="N" unicode="n" d="M1313 0 l-291 0 l-588 995 l-6 -1 l0 -994 l-292 0 l0 1456 l292 0 l588 -994 l6 1 l0 993 l291 0 l0 -1456 Z" /><glyph glyph-name="O" unicode="o" d="M1307 597 q0 -268 -169.5 -443 q-169.5 -175 -440.5 -175 q-269 0 -437 175 q-168 175 -168 443 l0 262 q0 267 167.5 442.5 q167.5 175.5 436.5 175.5 q271 0 441 -175.5 q170 -175.5 170 -442.5 l0 -262 ZM1015 861 q0 170 -85 279 q-85 109 -234 109 q-149 0 -231 -108.5 q-82 -108.5 -82 -279.5 l0 -264 q0 -173 83 -282 q83 -109 231 -109 q150 0 234 109 q84 109 84 282 l0 264 Z" /><glyph glyph-name="P" unicode="p" d="M428 528 l0 -528 l-292 0 l0 1456 l580 0 q251 0 395 -128 q144 -128 144 -337 q0 -209 -144 -336 q-144 -127 -395 -127 l-288 0 ZM428 753 l288 0 q122 0 185 66.5 q63 66.5 63 169.5 q0 105 -62.5 173.5 q-62.5 68.5 -185.5 68.5 l-288 0 l0 -478 Z" /><glyph glyph-name="Q" unicode="q" d="M1307 597 q0 -132 -43 -244.5 q-43 -112.5 -123 -195.5 l241 -236 l-191 -156 l-262 254 q-54 -19 -112 -29.5 q-58 -10.5 -120 -10.5 q-269 0 -437 175 q-168 175 -168 443 l0 262 q0 267 167.5 442.5 q167.5 175.5 436.5 175.5 q271 0 441 -175.5 q170 -175.5 170 -442.5 l0 -262 ZM1015 861 q0 170 -85 279 q-85 109 -234 109 q-149 0 -231 -108.5 q-82 -108.5 -82 -279.5 l0 -264 q0 -173 83 -282 q83 -109 231 -109 q150 0 234 109 q84 109 84 282 l0 264 Z" /><glyph glyph-name="R" unicode="r" d="M428 582 l0 -582 l-292 0 l0 1456 l549 0 q249 0 389.5 -113.5 q140.5 -113.5 140.5 -316.5 q0 -113 -59 -194 q-59 -81 -173 -131 q129 -38 185.5 -127 q56.5 -89 56.5 -220 l0 -107 q0 -61 16.5 -127.5 q16.5 -66.5 56.5 -98.5 l0 -21 l-301 0 q-40 32 -52 107 q-12 75 -12 142 l0 103 q0 109 -59.5 169.5 q-59.5 60.5 -167.5 60.5 l-278 0 ZM428 807 l252 0 q123 0 183.5 52 q60.5 52 60.5 154 q0 100 -60.5 159 q-60.5 59 -178.5 59 l-257 0 l0 -424 Z" /><glyph glyph-name="S" unicode="s" d="M922 380 q0 84 -59.5 135 q-59.5 51 -208.5 96 q-260 75 -393 178 q-133 103 -133 282 q0 179 152.5 292.5 q152.5 113.5 389.5 113.5 q240 0 391 -127.5 q151 -127.5 146 -314.5 l-2 -6 l-283 0 q0 101 -67.5 163.5 q-67.5 62.5 -189.5 62.5 q-117 0 -181 -52 q-64 -52 -64 -133 q0 -74 68.5 -121.5 q68.5 -47.5 236.5 -100.5 q241 -67 365 -177 q124 -110 124 -289 q0 -187 -147.5 -295 q-147.5 -108 -389.5 -108 q-238 0 -415 122.5 q-177 122.5 -172 343.5 l2 6 l284 0 q0 -130 79.5 -190.5 q79.5 -60.5 221.5 -60.5 q119 0 182 49 q63 49 63 131 Z" /><glyph glyph-name="T" unicode="t" d="M1142 1231 l-412 0 l0 -1231 l-292 0 l0 1231 l-410 0 l0 225 l1114 0 l0 -225 Z" /><glyph glyph-name="U" unicode="u" d="M1288 1456 l0 -966 q0 -245 -162 -378 q-162 -133 -424 -133 q-261 0 -421.5 133 q-160.5 133 -160.5 378 l0 966 l293 0 l0 -966 q0 -144 77 -215.5 q77 -71.5 212 -71.5 q137 0 215 71 q78 71 78 216 l0 966 l293 0 Z" /><glyph glyph-name="V" unicode="v" d="M630 387 l18 -79 l6 0 l17 77 l317 1071 l308 0 l-495 -1456 l-300 0 l-494 1456 l308 0 l315 -1069 Z" /><glyph glyph-name="W" unicode="w" d="M1288 458 l6 0 l208 998 l285 0 l-340 -1456 l-271 0 l-267 961 l-6 0 l-267 -961 l-271 0 l-341 1456 l286 0 l209 -997 l6 -1 l273 998 l215 0 l275 -998 Z" /><glyph glyph-name="X" unicode="x" d="M649 940 l273 516 l340 0 l-432 -722 l457 -734 l-353 0 l-281 525 l-281 -525 l-341 0 l443 734 l-432 722 l338 0 l269 -516 Z" /><glyph glyph-name="Y" unicode="y" d="M643 785 l6 0 l318 671 l320 0 l-500 -944 l0 -512 l-291 0 l0 527 l-491 929 l320 0 l318 -671 Z" /><glyph glyph-name="Z" unicode="z" d="M430 224 l712 0 l0 -224 l-1065 0 l0 152 l692 1079 l-691 0 l0 225 l1047 0 l0 -146 l-695 -1086 Z" /><glyph glyph-name="bracketleft" unicode="[" d="M553 1475 l-141 0 l0 -1595 l141 0 l0 -216 l-434 0 l0 2027 l434 0 l0 -216 Z" /><glyph glyph-name="backslash" unicode="\" d="M2 1456 l289 0 l608 -1581 l-289 0 l-608 1581 Z" /><glyph glyph-name="bracketright" unicode="]" d="M13 1691 l434 0 l0 -2027 l-434 0 l0 216 l142 0 l0 1595 l-142 0 l0 216 Z" /><glyph glyph-name="asciicircum" unicode="^" d="M275 729 l-231 0 l299 727 l212 0 l299 -727 l-231 0 l-165 413 l-8 34 l-6 0 l-7 -34 l-162 -413 Z" /><glyph glyph-name="underscore" unicode="_" d="M911 -219 l-910 0 l0 219 l910 0 l0 -219 Z" /><glyph glyph-name="grave" unicode="`" d="M585 1212 l-237 0 l-271 260 l2 6 l309 0 l197 -266 Z" /><glyph glyph-name="a" unicode="a" d="M747 0 q-16 37 -27.5 78 q-11.5 41 -16.5 84 q-45 -79 -118.5 -131 q-73.5 -52 -175.5 -52 q-170 0 -262 87.5 q-92 87.5 -92 238.5 q0 159 122.5 246.5 q122.5 87.5 357.5 87.5 l163 0 l0 86 q0 78 -41 121 q-41 43 -121 43 q-71 0 -109.5 -34.5 q-38.5 -34.5 -38.5 -95.5 l-282 1 l-1 6 q-7 137 119 236.5 q126 99.5 331 99.5 q194 0 315 -98.5 q121 -98.5 121 -280.5 l0 -447 q0 -76 11.5 -143 q11.5 -67 36.5 -133 l-292 0 ZM480 195 q77 0 137 38 q60 38 81 88 l0 153 l-163 0 q-93 0 -141 -46.5 q-48 -46.5 -48 -112.5 q0 -54 36 -87 q36 -33 98 -33 Z" /><glyph glyph-name="b" unicode="b" d="M1088 511 q0 -242 -108 -387 q-108 -145 -312 -145 q-94 0 -164.5 39.5 q-70.5 39.5 -119.5 115.5 l-22 -134 l-250 0 l0 1560 l291 0 l0 -593 q47 65 112.5 100 q65.5 35 150.5 35 q206 0 314 -155.5 q108 -155.5 108 -414.5 l0 -21 ZM797 532 q0 158 -46.5 250.5 q-46.5 92.5 -158.5 92.5 q-68 0 -115 -28.5 q-47 -28.5 -74 -81.5 l0 -458 q27 -49 74.5 -75 q47.5 -26 116.5 -26 q113 0 158 79.5 q45 79.5 45 225.5 l0 21 Z" /><glyph glyph-name="c" unicode="c" d="M566 203 q78 0 125 45.5 q47 45.5 47 121.5 l265 0 l3 -6 q4 -164 -123.5 -274.5 q-127.5 -110.5 -316.5 -110.5 q-242 0 -373 153 q-131 153 -131 393 l0 30 q0 239 130.5 393 q130.5 154 372.5 154 q200 0 322.5 -114 q122.5 -114 118.5 -300 l-2 -6 l-266 0 q0 84 -46 139.5 q-46 55.5 -127 55.5 q-116 0 -163.5 -90 q-47.5 -90 -47.5 -232 l0 -30 q0 -145 47.5 -233.5 q47.5 -88.5 164.5 -88.5 Z" /><glyph glyph-name="d" unicode="d" d="M67 532 q0 256 110.5 413 q110.5 157 311.5 157 q81 0 146 -35 q65 -35 114 -100 l0 593 l293 0 l0 -1560 l-251 0 l-24 132 q-51 -75 -120.5 -114 q-69.5 -39 -159.5 -39 q-199 0 -309.5 146 q-110.5 146 -110.5 386 l0 21 ZM358 511 q0 -142 48 -223.5 q48 -81.5 156 -81.5 q63 0 110 25.5 q47 25.5 77 74.5 l0 461 q-30 51 -76.5 79.5 q-46.5 28.5 -108.5 28.5 q-107 0 -156.5 -95 q-49.5 -95 -49.5 -248 l0 -21 Z" /><glyph glyph-name="e" unicode="e" d="M591 -21 q-234 0 -374 150 q-140 150 -140 381 l0 40 q0 241 132.5 397 q132.5 156 355.5 155 q219 0 340 -132 q121 -132 121 -357 l0 -159 l-646 0 l-2 -6 q8 -107 71.5 -176 q63.5 -69 172.5 -69 q97 0 161 19.5 q64 19.5 140 61.5 l79 -180 q-66 -54 -173 -89.5 q-107 -35.5 -238 -35.5 ZM565 877 q-81 0 -128 -62 q-47 -62 -58 -163 l3 -5 l358 0 l0 26 q0 93 -43.5 148.5 q-43.5 55.5 -131.5 55.5 Z" /><glyph glyph-name="f" unicode="f" d="M188 0 l0 877 l-161 0 l0 205 l161 0 l0 120 q0 182 105 280.5 q105 98.5 295 98.5 q37 0 75.5 -5.5 q38.5 -5.5 84.5 -15.5 l-25 -217 q-24 4 -46.5 7 q-22.5 3 -52.5 3 q-71 0 -107.5 -39 q-36.5 -39 -36.5 -112 l0 -120 l215 0 l0 -205 l-215 0 l0 -877 l-292 0 Z" /><glyph glyph-name="g" unicode="g" d="M67 532 q0 256 111.5 413 q111.5 157 312.5 157 q91 0 160 -41 q69 -41 118 -117 l23 138 l252 0 l0 -1077 q0 -211 -138.5 -326.5 q-138.5 -115.5 -385.5 -115.5 q-82 0 -174 22.5 q-92 22.5 -170 61.5 l54 218 q67 -32 136.5 -48.5 q69.5 -16.5 151.5 -16.5 q120 0 176.5 50 q56.5 50 56.5 156 l0 98 q-48 -61 -113 -93 q-65 -32 -149 -32 q-199 0 -310.5 146.5 q-111.5 146.5 -111.5 385.5 l0 21 ZM359 511 q0 -142 48 -223.5 q48 -81.5 156 -81.5 q67 0 113.5 24.5 q46.5 24.5 74.5 71.5 l0 470 q-28 49 -74.5 76 q-46.5 27 -111.5 27 q-107 0 -156.5 -95 q-49.5 -95 -49.5 -248 l0 -21 Z" /><glyph glyph-name="h" unicode="h" d="M397 945 q51 74 125 115.5 q74 41.5 164 41.5 q169 0 265.5 -112.5 q96.5 -112.5 96.5 -347.5 l0 -642 l-292 0 l0 644 q0 126 -44.5 178.5 q-44.5 52.5 -132.5 52.5 q-60 0 -106 -21.5 q-46 -21.5 -76 -60.5 l0 -793 l-292 0 l0 1560 l292 0 l0 -615 Z" /><glyph glyph-name="i" unicode="i" d="M419 0 l-292 0 l0 1082 l292 0 l0 -1082 ZM419 1341 l-292 0 l0 219 l292 0 l0 -219 Z" /><glyph glyph-name="j" unicode="j" d="M427 1082 l0 -1122 q0 -190 -101 -293.5 q-101 -103.5 -281 -103.5 q-40 0 -73 4 q-33 4 -70 13 l14 223 q23 -6 46 -9 q23 -3 49 -3 q59 0 91 41.5 q32 41.5 32 127.5 l0 1122 l293 0 ZM421 1343 l-293 0 l0 217 l293 0 l0 -217 Z" /><glyph glyph-name="k" unicode="k" d="M484 453 l-80 0 l0 -453 l-292 0 l0 1560 l292 0 l0 -885 l72 0 l251 407 l338 0 l-346 -490 l399 -592 l-335 0 l-299 453 Z" /><glyph glyph-name="l" unicode="l" d="M419 0 l-292 0 l0 1560 l292 0 l0 -1560 Z" /><glyph glyph-name="m" unicode="m" d="M383 1082 l12 -143 q52 78 130.5 120.5 q78.5 42.5 181.5 42.5 q104 0 178 -46 q74 -46 112 -139 q50 87 130 136 q80 49 188 49 q160 0 252.5 -110.5 q92.5 -110.5 92.5 -336.5 l0 -655 l-292 0 l0 656 q0 123 -40 171 q-40 48 -119 48 q-62 0 -107.5 -27.5 q-45.5 -27.5 -72.5 -76.5 q0 -19 1 -32.5 q1 -13.5 1 -27.5 l0 -711 l-291 0 l0 656 q0 120 -40 169.5 q-40 49.5 -120 49.5 q-59 0 -103.5 -22.5 q-44.5 -22.5 -73.5 -63.5 l0 -789 l-291 0 l0 1082 l271 0 Z" /><glyph glyph-name="n" unicode="n" d="M379 1082 l13 -155 q54 83 133 129 q79 46 177 46 q164 0 256 -103 q92 -103 92 -323 l0 -676 l-293 0 l0 675 q0 109 -44 154.5 q-44 45.5 -133 45.5 q-58 0 -104 -23.5 q-46 -23.5 -77 -66.5 l0 -785 l-292 0 l0 1082 l272 0 Z" /><glyph glyph-name="o" unicode="o" d="M67 551 q0 242 135 396.5 q135 154.5 374 154.5 q240 0 376 -154 q136 -154 136 -397 l0 -21 q0 -244 -135.5 -397.5 q-135.5 -153.5 -374.5 -153.5 q-240 0 -375.5 153.5 q-135.5 153.5 -135.5 397.5 l0 21 ZM358 530 q0 -148 52 -237.5 q52 -89.5 168 -89.5 q113 0 165.5 90 q52.5 90 52.5 237 l0 21 q0 144 -53 235 q-53 91 -167 91 q-113 0 -165.5 -91.5 q-52.5 -91.5 -52.5 -234.5 l0 -21 Z" /><glyph glyph-name="p" unicode="p" d="M1088 511 q0 -240 -111 -386 q-111 -146 -310 -146 q-85 0 -151 31.5 q-66 31.5 -113 92.5 l0 -519 l-291 0 l0 1498 l263 0 l17 -128 q48 71 115.5 109.5 q67.5 38.5 157.5 38.5 q201 0 312 -157 q111 -157 111 -413 l0 -21 ZM796 532 q0 153 -51 248 q-51 95 -156 95 q-66 0 -112.5 -27 q-46.5 -27 -73.5 -77 l0 -474 q27 -46 73.5 -70 q46.5 -24 114.5 -24 q106 0 155.5 83 q49.5 83 49.5 225 l0 21 Z" /><glyph glyph-name="q" unicode="q" d="M67 532 q0 256 110.5 413 q110.5 157 311.5 157 q90 0 158 -39.5 q68 -39.5 117 -113.5 l27 133 l248 0 l0 -1498 l-292 0 l0 517 q-48 -60 -112.5 -91 q-64.5 -31 -147.5 -31 q-199 0 -309.5 146 q-110.5 146 -110.5 386 l0 21 ZM358 511 q0 -142 48 -225 q48 -83 156 -83 q64 0 110 24 q46 24 75 70 l0 480 q-29 48 -74.5 74 q-45.5 26 -108.5 26 q-107 0 -156.5 -96 q-49.5 -96 -49.5 -249 l0 -21 Z" /><glyph glyph-name="r" unicode="r" d="M681 831 l-107 3 q-65 0 -107 -27 q-42 -27 -64 -76 l0 -731 l-291 0 l0 1082 l271 0 l13 -160 q38 85 98.5 132.5 q60.5 47.5 139.5 47.5 q22 0 40.5 -3.5 q18.5 -3.5 37.5 -8.5 l-31 -259 Z" /><glyph glyph-name="s" unicode="s" d="M697 298 q0 48 -46.5 83 q-46.5 35 -172.5 62 q-192 39 -289.5 115.5 q-97.5 76.5 -97.5 208.5 q0 140 117.5 237.5 q117.5 97.5 314.5 97.5 q207 0 329.5 -97 q122.5 -97 117.5 -245 l-2 -6 l-282 0 q0 65 -41.5 106 q-41.5 41 -121.5 41 q-71 0 -111.5 -34.5 q-40.5 -34.5 -40.5 -86.5 q0 -50 42.5 -82 q42.5 -32 172.5 -57 q200 -40 297 -117.5 q97 -77.5 97 -213.5 q0 -146 -125 -238.5 q-125 -92.5 -330 -92.5 q-216 0 -341.5 109.5 q-125.5 109.5 -119.5 249.5 l2 6 l267 0 q3 -87 57 -126 q54 -39 141 -39 q81 0 123.5 32 q42.5 32 42.5 87 Z" /><glyph glyph-name="t" unicode="t" d="M459 1347 l0 -265 l182 0 l0 -205 l-182 0 l0 -551 q0 -63 26 -90 q26 -27 70 -27 q23 0 39.5 2.5 q16.5 2.5 38.5 8.5 l25 -211 q-44 -15 -86 -22.5 q-42 -7.5 -91 -7.5 q-151 0 -232.5 83 q-81.5 83 -81.5 263 l0 552 l-158 0 l0 205 l158 0 l0 265 l292 0 Z" /><glyph glyph-name="u" unicode="u" d="M773 156 q-50 -85 -127 -131 q-77 -46 -177 -46 q-171 0 -267.5 109.5 q-96.5 109.5 -96.5 340.5 l0 653 l291 0 l0 -655 q0 -118 40 -169.5 q40 -51.5 118 -51.5 q70 0 120 22.5 q50 22.5 82 66.5 l0 787 l292 0 l0 -1082 l-249 0 l-26 156 Z" /><glyph glyph-name="v" unicode="v" d="M503 403 l19 -100 l6 0 l20 100 l178 679 l305 0 l-368 -1082 l-279 0 l-368 1082 l305 0 l182 -679 Z" /><glyph glyph-name="w" unicode="w" d="M1053 387 l6 0 l141 695 l274 0 l-275 -1082 l-244 0 l-201 644 l-6 0 l-201 -644 l-243 0 l-275 1082 l274 0 l143 -693 l6 0 l202 693 l195 0 l204 -695 Z" /><glyph glyph-name="x" unicode="x" d="M519 738 l6 0 l166 344 l330 0 l-326 -535 l337 -547 l-329 0 l-177 359 l-177 -359 l-330 0 l337 547 l-327 535 l328 0 l162 -344 Z" /><glyph glyph-name="y" unicode="y" d="M502 454 l12 -60 l6 0 l207 688 l314 0 l-439 -1244 q-46 -116 -125 -195.5 q-79 -79.5 -237 -79.5 q-37 0 -68.5 6 q-31.5 6 -76.5 17 l34 213 q13 -2 28 -4 q15 -2 27 -2 q72 0 111 35.5 q39 35.5 60 88.5 l34 84 l-384 1081 l314 0 l183 -628 Z" /><glyph glyph-name="z" unicode="z" d="M438 224 l536 0 l0 -224 l-899 0 l0 172 l515 684 l-499 0 l0 226 l866 0 l0 -167 l-519 -691 Z" /><glyph glyph-name="braceleft" unicode="{" d="M585 -360 q-195 55 -277.5 175 q-82.5 120 -82.5 291 l0 203 q0 99 -43.5 154 q-43.5 55 -133.5 55 l0 201 q90 0 133.5 54.5 q43.5 54.5 43.5 155.5 l0 203 q0 171 82.5 290.5 q82.5 119.5 277.5 174.5 l56 -157 q-85 -31 -120 -110.5 q-35 -79.5 -35 -197.5 l0 -203 q0 -104 -44.5 -184.5 q-44.5 -80.5 -134.5 -125.5 q90 -47 134.5 -127.5 q44.5 -80.5 44.5 -182.5 l0 -203 q0 -118 35 -197.5 q35 -79.5 120 -110.5 l-56 -158 Z" /><glyph glyph-name="bar" unicode="|" d="M349 -270 l-176 0 l0 1726 l176 0 l0 -1726 Z" /><glyph glyph-name="braceright" unicode="}" d="M34 -202 q85 31 120 110.5 q35 79.5 35 197.5 l0 203 q0 104 46 184 q46 80 140 125 q-94 45 -140 125.5 q-46 80.5 -46 185.5 l0 203 q0 118 -35 197.5 q-35 79.5 -120 110.5 l56 157 q194 -55 277 -174.5 q83 -119.5 83 -290.5 l0 -203 q0 -101 43 -155.5 q43 -54.5 135 -54.5 l0 -201 q-92 0 -135 -55 q-43 -55 -43 -154 l0 -203 q0 -171 -83 -291 q-83 -120 -277 -175 l-56 158 Z" /><glyph glyph-name="asciitilde" unicode="~" d="M1220 758 q0 -161 -88.5 -270.5 q-88.5 -109.5 -223.5 -109.5 q-85 0 -157 31.5 q-72 31.5 -150 101.5 q-52 44 -89.5 64 q-37.5 20 -81.5 20 q-52 0 -87.5 -51 q-35.5 -51 -35.5 -122 l-202 26 q0 162 86.5 269.5 q86.5 107.5 223.5 107.5 q83 0 158.5 -33.5 q75.5 -33.5 151.5 -99.5 q49 -45 86.5 -64.5 q37.5 -19.5 81.5 -19.5 q50 0 87 52 q37 52 37 125 l203 -27 Z" /><glyph glyph-name="nonbreakingspace" unicode=" " d="" /><glyph glyph-name="exclamdown" unicode="¡" d="M434 -374 l-292 0 l0 953 l292 0 l0 -953 ZM434 825 l-292 0 l0 257 l292 0 l0 -257 Z" /><glyph glyph-name="cent" unicode="¢" d="M576 203 q78 0 125 45.5 q47 45.5 47 121.5 l267 0 l2 -5 q3 -135 -85.5 -237 q-88.5 -102 -231.5 -135 l0 -238 l-200 0 l0 229 q-207 23 -317.5 172.5 q-110.5 149.5 -110.5 368.5 l0 30 q0 218 110.5 367.5 q110.5 149.5 317.5 174.5 l0 221 l200 0 l0 -229 q148 -34 235 -141.5 q87 -107.5 87 -265.5 l-274 0 q0 84 -46 139.5 q-46 55.5 -127 55.5 q-116 0 -163.5 -90 q-47.5 -90 -47.5 -232 l0 -30 q0 -145 47.5 -233.5 q47.5 -88.5 164.5 -88.5 Z" /><glyph glyph-name="sterling" unicode="£" d="M551 588 l4 -85 q0 -78 -30 -150 q-30 -72 -86 -129 l713 0 l0 -224 l-996 0 l0 224 l10 0 q47 12 70.5 95 q23.5 83 23.5 171 l-4 98 l-164 0 l0 225 l155 0 l-8 214 q0 210 120.5 330 q120.5 120 322.5 120 q215 0 333.5 -111.5 q118.5 -111.5 114.5 -294.5 l-2 -6 l-284 0 q0 96 -46 141.5 q-46 45.5 -117 45.5 q-70 0 -110 -58.5 q-40 -58.5 -40 -166.5 l10 -214 l355 0 l0 -225 l-345 0 Z" /><glyph glyph-name="currency" unicode="¤" d="M1072 107 q-77 -62 -169 -94.5 q-92 -32.5 -192 -32.5 q-101 0 -193.5 32.5 q-92.5 32.5 -167.5 93.5 l-129 -132 l-141 144 l135 137 q-49 76 -74.5 165.5 q-25.5 89.5 -25.5 187.5 q0 101 28 194 q28 93 81 171 l-144 147 l141 144 l142 -145 q74 55 162.5 85 q88.5 30 185.5 30 q96 0 185 -30.5 q89 -30.5 164 -86.5 l144 148 l142 -145 l-148 -151 q51 -78 79 -169.5 q28 -91.5 28 -191.5 q0 -97 -25.5 -185.5 q-25.5 -88.5 -72.5 -163.5 l139 -141 l-142 -145 l-132 134 ZM301 608 q0 -185 119 -312 q119 -127 291 -127 q170 0 289.5 127.5 q119.5 127.5 119.5 311.5 q0 183 -119.5 310 q-119.5 127 -289.5 127 q-172 0 -291 -127 q-119 -127 -119 -310 Z" /><glyph glyph-name="yen" unicode="¥" d="M623 848 l6 0 l281 608 l320 0 l-382 -714 l244 0 l0 -200 l-324 0 l0 -110 l324 0 l0 -200 l-324 0 l0 -232 l-292 0 l0 232 l-339 0 l0 200 l339 0 l0 110 l-339 0 l0 200 l267 0 l-382 714 l321 0 l280 -608 Z" /><glyph glyph-name="brokenbar" unicode="¦" d="M127 -270 l0 795 l262 0 l0 -795 l-262 0 ZM389 698 l-262 0 l0 758 l262 0 l0 -758 Z" /><glyph glyph-name="section" unicode="§" d="M1180 475 q0 -91 -42 -159 q-42 -68 -121 -111 q68 -51 102.5 -121 q34.5 -70 34.5 -168 q0 -177 -140 -277 q-140 -100 -377 -100 q-232 0 -387.5 99.5 q-155.5 99.5 -150.5 317.5 l2 6 l283 1 q0 -106 72.5 -152 q72.5 -46 180.5 -46 q107 0 166.5 41.5 q59.5 41.5 59.5 108.5 q0 67 -61 107.5 q-61 40.5 -230 90.5 q-244 64 -361 157.5 q-117 93.5 -117 265.5 q0 89 42 158 q42 69 121 113 q-69 50 -103 120.5 q-34 70.5 -34 168.5 q0 172 141.5 276.5 q141.5 104.5 378.5 104.5 q243 0 380.5 -111 q137.5 -111 132.5 -311 l-2 -6 l-283 0 q0 88 -60 145.5 q-60 57.5 -168 57.5 q-114 0 -171 -43.5 q-57 -43.5 -57 -110.5 q0 -75 55.5 -113.5 q55.5 -38.5 232.5 -86.5 q247 -64 363.5 -157.5 q116.5 -93.5 116.5 -265.5 ZM599 663 q-40 10 -74 21 q-34 11 -65 22 q-38 -22 -56.5 -59 q-18.5 -37 -18.5 -85 q0 -80 55.5 -121.5 q55.5 -41.5 232.5 -93.5 q34 -10 68.5 -20 q34.5 -10 69.5 -21 q39 22 60.5 59 q21.5 37 21.5 85 q0 71 -62 116 q-62 45 -232 97 Z" /><glyph glyph-name="dieresis" unicode="¨" d="M922 1252 l-266 0 l0 204 l266 0 l0 -204 ZM422 1252 l-266 0 l0 204 l266 0 l0 -204 Z" /><glyph glyph-name="copyright" unicode="©" d="M1109 596 l2 -6 q4 -151 -84 -229.5 q-88 -78.5 -245 -78.5 q-160 0 -254.5 106 q-94.5 106 -94.5 281 l0 119 q0 173 94.5 280 q94.5 107 254.5 107 q157 0 245.5 -79.5 q88.5 -79.5 84.5 -228.5 l-2 -6 l-148 0 q0 94 -45 136.5 q-45 42.5 -135 42.5 q-94 0 -144 -69 q-50 -69 -50 -182 l0 -120 q0 -115 50 -183.5 q50 -68.5 144 -68.5 q90 0 134.5 41.5 q44.5 41.5 44.5 137.5 l148 0 ZM208 729 q0 -264 171.5 -444.5 q171.5 -180.5 416.5 -180.5 q244 0 415.5 180.5 q171.5 180.5 171.5 444.5 q0 263 -171.5 442.5 q-171.5 179.5 -415.5 179.5 q-246 0 -417 -179.5 q-171 -179.5 -171 -442.5 ZM86 729 q0 315 207 531 q207 216 503 216 q295 0 502.5 -216 q207.5 -216 207.5 -531 q0 -316 -208 -533 q-208 -217 -502 -217 q-296 0 -503 217 q-207 217 -207 533 Z" /><glyph glyph-name="ordfeminine" unicode="ª" d="M604 706 q-8 21 -13 44.5 q-5 23.5 -8 49.5 q-33 -47 -88.5 -77.5 q-55.5 -30.5 -133.5 -30.5 q-119 0 -184 61 q-65 61 -65 167 q0 111 84.5 171 q84.5 60 246.5 60 l137 0 l0 51 q0 62 -29.5 94.5 q-29.5 32.5 -86.5 32.5 q-66 0 -102 -26 q-36 -26 -36 -73 l-165 13 l-1 6 q-6 98 79 163 q85 65 225 65 q134 0 212.5 -71 q78.5 -71 78.5 -205 l0 -314 q0 -51 6 -95 q6 -44 20 -86 l-177 0 ZM404 836 q51 0 105 30 q54 30 71 65 l0 103 l-136 0 q-74 0 -115.5 -32 q-41.5 -32 -41.5 -78 q0 -43 29 -65.5 q29 -22.5 88 -22.5 Z" /><glyph glyph-name="logicalnot" unicode="¬" d="M961 374 l-200 0 l0 260 l-635 0 l0 171 l835 0 l0 -431 Z" /><glyph glyph-name="registered" unicode="®" d="M86 729 q0 315 207 531 q207 216 503 216 q295 0 502.5 -216 q207.5 -216 207.5 -531 q0 -316 -208 -533 q-208 -217 -502 -217 q-296 0 -503 217 q-207 217 -207 533 ZM208 729 q0 -264 171.5 -444.5 q171.5 -180.5 416.5 -180.5 q244 0 415.5 180.5 q171.5 180.5 171.5 444.5 q0 263 -171.5 442.5 q-171.5 179.5 -415.5 179.5 q-246 0 -417 -179.5 q-171 -179.5 -171 -442.5 ZM652 653 l0 -337 l-151 0 l0 850 l281 0 q151 0 238 -68 q87 -68 87 -194 q0 -58 -29 -101.5 q-29 -43.5 -85 -74.5 q58 -30 84.5 -84.5 q26.5 -54.5 26.5 -128.5 l0 -56 q0 -41 3.5 -73.5 q3.5 -32.5 13.5 -53.5 l0 -16 l-155 0 q-9 21 -11 61.5 q-2 40.5 -2 82.5 l0 54 q0 71 -33.5 105 q-33.5 34 -109.5 34 l-158 0 ZM652 787 l135 0 q71 0 120.5 30 q49.5 30 49.5 86 q0 72 -39 101 q-39 29 -136 29 l-130 0 l0 -246 Z" /><glyph glyph-name="macron" unicode="¯" d="M879 1292 l-731 0 l0 165 l731 0 l0 -165 Z" /><glyph glyph-name="degree" unicode="°" d="M126 1203 q0 112 80.5 193 q80.5 81 192.5 81 q110 0 189 -81 q79 -81 79 -193 q0 -113 -79 -192 q-79 -79 -189 -79 q-113 0 -193 79 q-80 79 -80 192 ZM273 1203 q0 -53 37 -88.5 q37 -35.5 89 -35.5 q51 0 86 35 q35 35 35 89 q0 54 -35 91 q-35 37 -86 37 q-52 0 -89 -37 q-37 -37 -37 -91 Z" /><glyph glyph-name="plusminus" unicode="±" d="M679 947 l327 0 l0 -232 l-327 0 l0 -383 l-256 0 l0 383 l-333 0 l0 232 l333 0 l0 363 l256 0 l0 -363 ZM948 -43 l-834 0 l0 228 l834 0 l0 -228 Z" /><glyph glyph-name="twosuperior" unicode="²" d="M736 667 l-622 0 l0 155 l309 252 q60 50 77.5 83.5 q17.5 33.5 17.5 74.5 q0 39 -23.5 65.5 q-23.5 26.5 -72.5 26.5 q-55 0 -83 -30 q-28 -30 -28 -77 l-201 0 l-2 6 q-6 106 82.5 181 q88.5 75 236.5 75 q144 0 223 -65 q79 -65 79 -183 q0 -82 -53.5 -144.5 q-53.5 -62.5 -178.5 -165.5 l-109 -93 l2 -6 l346 0 l0 -155 Z" /><glyph glyph-name="threesuperior" unicode="³" d="M408 1139 q62 0 92 24.5 q30 24.5 30 70.5 q0 38 -28.5 63.5 q-28.5 25.5 -83.5 25.5 q-51 0 -79.5 -22 q-28.5 -22 -28.5 -53 l-200 0 l-2 6 q-6 101 82 162.5 q88 61.5 222 61.5 q152 0 240.5 -59.5 q88.5 -59.5 88.5 -169.5 q0 -55 -35.5 -100.5 q-35.5 -45.5 -96.5 -70.5 q70 -24 107.5 -71.5 q37.5 -47.5 37.5 -115.5 q0 -112 -89.5 -174 q-89.5 -62 -241.5 -62 q-146 0 -240 62.5 q-94 62.5 -88 175.5 l2 6 l201 0 q0 -42 31.5 -65.5 q31.5 -23.5 91.5 -23.5 q56 0 90 24 q34 24 34 68 q0 50 -35 77 q-35 27 -102 27 l-111 0 l0 133 l111 0 Z" /><glyph glyph-name="acute" unicode="´" d="M307 1478 l309 0 l2 -6 l-277 -260 l-233 0 l199 266 Z" /><glyph glyph-name="mu" unicode="µ" d="M430 1082 l0 -620 q0 -149 45 -202.5 q45 -53.5 135 -53.5 q75 0 125 27.5 q50 27.5 78 79.5 l0 769 l292 0 l0 -1082 l-272 0 l-6 67 q-44 -43 -100.5 -65.5 q-56.5 -22.5 -123.5 -22.5 q-51 0 -94.5 10.5 q-43.5 10.5 -78.5 33.5 l0 -439 l-291 0 l0 1498 l291 0 Z" /><glyph glyph-name="paragraph" unicode="¶" d="M636 0 l0 520 l-83 0 q-233 0 -362.5 129.5 q-129.5 129.5 -129.5 338.5 q0 207 129.5 337.5 q129.5 130.5 362.5 130.5 l375 0 l0 -1456 l-292 0 Z" /><glyph glyph-name="periodcentered" unicode="·" d="M451 568 l-292 0 l0 260 l292 0 l0 -260 Z" /><glyph glyph-name="cedilla" unicode="¸" d="M347 6 l-11 -57 q64 -11 107 -52 q43 -41 43 -121 q0 -107 -91.5 -171 q-91.5 -64 -259.5 -64 l-7 161 q51 0 81 20.5 q30 20.5 30 62.5 q0 41 -32 57.5 q-32 16.5 -110 21.5 l31 142 l219 0 Z" /><glyph glyph-name="onesuperior" unicode="¹" d="M416 665 l-211 0 l0 630 l-127 0 l0 159 l338 23 l0 -812 Z" /><glyph glyph-name="ordmasculine" unicode="º" d="M118 1142 q0 148 94 241.5 q94 93.5 252 93.5 q158 0 252.5 -93.5 q94.5 -93.5 94.5 -241.5 l0 -117 q0 -149 -94 -241.5 q-94 -92.5 -251 -92.5 q-159 0 -253.5 92.5 q-94.5 92.5 -94.5 241.5 l0 117 ZM293 1025 q0 -85 44 -136.5 q44 -51.5 129 -51.5 q82 0 126 51.5 q44 51.5 44 136.5 l0 117 q0 83 -44.5 135 q-44.5 52 -127.5 52 q-84 0 -127.5 -52 q-43.5 -52 -43.5 -135 l0 -117 Z" /><glyph glyph-name="questiondown" unicode="¿" d="M726 668 q-2 -141 -42.5 -206.5 q-40.5 -65.5 -159.5 -157.5 q-72 -58 -114.5 -125.5 q-42.5 -67.5 -42.5 -149.5 q0 -90 48.5 -142 q48.5 -52 139.5 -52 q73 0 124 43 q51 43 54 128 l283 0 l2 -6 q2 -191 -127.5 -292.5 q-129.5 -101.5 -335.5 -101.5 q-226 0 -353 113 q-127 113 -127 308 q0 125 74 233 q74 108 187 183 q60 45 79.5 92.5 q19.5 47.5 19.5 132.5 l291 0 ZM433 1082 l294 0 l0 -251 l-294 0 l0 251 Z" /><glyph glyph-name="AE" unicode="æ" d="M1865 0 l-898 0 l-14 335 l-440 0 l-168 -335 l-342 0 l784 1456 l1016 0 l0 -228 l-596 0 l16 -366 l499 0 l0 -227 l-490 0 l17 -408 l616 0 l0 -227 ZM633 575 l310 0 l-23 559 l-6 1 l-281 -560 Z" /><glyph glyph-name="Eth" unicode="ð" d="M166 0 l0 652 l-135 0 l0 181 l135 0 l0 623 l500 0 q267 0 440 -170.5 q173 -170.5 173 -437.5 l0 -241 q0 -268 -173 -437.5 q-173 -169.5 -440 -169.5 l-500 0 ZM702 652 l-244 0 l0 -428 l193 0 q157 0 246 106 q89 106 89 277 l0 243 q0 169 -89 275 q-89 106 -246 106 l-193 0 l0 -398 l244 0 l0 -181 Z" /><glyph glyph-name="multiply" unicode="×" d="M64 371 l309 315 l-309 315 l172 164 l303 -310 l304 310 l172 -164 l-309 -315 l309 -315 l-172 -164 l-304 309 l-303 -309 l-172 164 Z" /><glyph glyph-name="Oslash" unicode="ø" d="M1307 597 q0 -268 -169.5 -443 q-169.5 -175 -440.5 -175 q-79 0 -151 16 q-72 16 -133 47 l-80 -137 l-143 0 l119 204 q-104 83 -160.5 209.5 q-56.5 126.5 -56.5 278.5 l0 262 q0 267 167.5 442.5 q167.5 175.5 436.5 175.5 q100 0 188.5 -26.5 q88.5 -26.5 162.5 -74.5 l83 142 l143 0 l-130 -223 q79 -83 121.5 -195 q42.5 -112 42.5 -241 l0 -262 ZM383 597 q0 -74 15.5 -137.5 q15.5 -63.5 45.5 -107.5 l6 -1 l468 803 q-42 45 -98 70 q-56 25 -124 25 q-149 0 -231 -108.5 q-82 -108.5 -82 -279.5 l0 -264 ZM1015 861 q0 45 -7 87 q-7 42 -18 73 l-6 1 l-449 -771 q33 -22 74 -33.5 q41 -11.5 88 -11.5 q150 0 234 109 q84 109 84 282 l0 264 Z" /><glyph glyph-name="Thorn" unicode="þ" d="M424 1456 l0 -270 l221 0 q254 0 396 -124 q142 -124 142 -324 q0 -201 -142 -325 q-142 -124 -396 -124 l-221 0 l0 -289 l-292 0 l0 1456 l292 0 ZM424 961 l0 -447 l221 0 q123 0 184.5 63.5 q61.5 63.5 61.5 158.5 q0 95 -61.5 160 q-61.5 65 -184.5 65 l-221 0 Z" /><glyph glyph-name="germandbls" unicode="ß" d="M426 0 l-291 0 l0 1101 q0 226 129 349 q129 123 352 123 q180 0 299 -95.5 q119 -95.5 119 -271.5 q0 -108 -53.5 -205.5 q-53.5 -97.5 -53.5 -165.5 q0 -56 150 -197.5 q150 -141.5 150 -281.5 q0 -189 -115 -283 q-115 -94 -332 -94 q-81 0 -160.5 15 q-79.5 15 -118.5 41 l55 223 q39 -22 96 -38.5 q57 -16.5 122 -16.5 q76 0 119 38 q43 38 43 103 q0 71 -150 205.5 q-150 134.5 -150 276.5 q0 90 54.5 190 q54.5 100 54.5 175 q0 68 -45 113 q-45 45 -103 45 q-76 0 -123.5 -67.5 q-47.5 -67.5 -47.5 -184.5 l0 -1097 Z" /><glyph glyph-name="ae" unicode="æ" d="M1246 -21 q-129 0 -229.5 40.5 q-100.5 40.5 -167.5 116.5 q-60 -68 -161.5 -112.5 q-101.5 -44.5 -240.5 -44.5 q-192 0 -296.5 90.5 q-104.5 90.5 -104.5 247.5 q0 159 127 245 q127 86 370 86 l181 0 l0 59 q0 79 -41 124.5 q-41 45.5 -115 45.5 q-81 0 -127 -37.5 q-46 -37.5 -46 -93.5 l-283 18 l-2 6 q-6 144 121.5 238 q127.5 94 339.5 94 q102 0 186 -27.5 q84 -27.5 143 -79.5 q61 52 142.5 79.5 q81.5 27.5 180.5 27.5 q212 0 333 -132 q121 -132 121 -358 l0 -158 l-650 0 l-2 -6 q4 -112 66 -178.5 q62 -66.5 186 -66.5 q92 0 154 20 q62 20 140 61 l77 -184 q-62 -48 -169 -84.5 q-107 -36.5 -233 -36.5 ZM503 185 q58 0 121 30.5 q63 30.5 100 72.5 l0 176 l-179 0 q-98 0 -152.5 -44 q-54.5 -44 -54.5 -107 q0 -59 41.5 -93.5 q41.5 -34.5 123.5 -34.5 ZM1223 877 q-95 0 -142 -61.5 q-47 -61.5 -54 -166.5 l2 -5 l362 0 l0 28 q0 94 -42.5 149.5 q-42.5 55.5 -125.5 55.5 Z" /><glyph glyph-name="eth" unicode="ð" d="M921 1290 q102 -106 158.5 -245 q56.5 -139 56.5 -303 l0 -196 q0 -250 -157 -408.5 q-157 -158.5 -392 -158.5 q-238 0 -388.5 140.5 q-150.5 140.5 -150.5 348.5 q0 226 134.5 362.5 q134.5 136.5 365.5 136.5 q81 0 153 -25.5 q72 -25.5 124 -70.5 l4 4 q-14 83 -54 153.5 q-40 70.5 -100 125.5 l-245 -136 l-78 113 l192 106 l-1 6 q-31 16 -68 30 q-37 14 -77 26 l92 218 q88 -19 168.5 -52.5 q80.5 -33.5 149.5 -80.5 l198 109 l77 -113 l-162 -90 ZM591 203 q116 0 184.5 96.5 q68.5 96.5 68.5 246.5 l0 118 q-35 39 -99 65 q-64 26 -151 26 q-122 0 -188 -79 q-66 -79 -66 -208 q0 -112 68 -188.5 q68 -76.5 183 -76.5 Z" /><glyph glyph-name="divide" unicode="÷" d="M1092 573 l-1029 0 l0 227 l1029 0 l0 -227 ZM725 973 l-293 0 l0 233 l293 0 l0 -233 ZM725 164 l-293 0 l0 233 l293 0 l0 -233 Z" /><glyph glyph-name="oslash" unicode="ø" d="M67 551 q0 242 135 396.5 q135 154.5 374 154.5 q50 0 96.5 -8 q46.5 -8 90.5 -22 l70 143 l161 0 l-103 -211 q95 -74 146 -191.5 q51 -117.5 51 -261.5 l0 -21 q0 -244 -135.5 -397.5 q-135.5 -153.5 -374.5 -153.5 q-48 0 -92 7 q-44 7 -84 19 l-71 -146 l-161 0 l103 211 q-101 71 -153.5 190.5 q-52.5 119.5 -52.5 269.5 l0 21 ZM358 530 q0 -62 8.5 -114 q8.5 -52 26.5 -86 l6 -1 l260 531 q-19 8 -39.5 12.5 q-20.5 4.5 -43.5 4.5 q-113 0 -165.5 -91.5 q-52.5 -91.5 -52.5 -234.5 l0 -21 ZM796 551 q0 54 -8 102 q-8 48 -22 82 l-6 1 l-255 -521 q15 -7 33.5 -9.5 q18.5 -2.5 39.5 -2.5 q113 0 165.5 90 q52.5 90 52.5 237 l0 21 Z" /><glyph glyph-name="thorn" unicode="þ" d="M1098 511 q0 -240 -111 -386 q-111 -146 -310 -146 q-85 0 -151 31.5 q-66 31.5 -113 92.5 l0 -519 l-291 0 l0 416 l-1 0 l0 1560 l292 0 l0 -591 q47 64 112 98.5 q65 34.5 150 34.5 q201 0 312 -157 q111 -157 111 -413 l0 -21 ZM806 532 q0 153 -51 248 q-51 95 -156 95 q-66 0 -112.5 -27 q-46.5 -27 -73.5 -77 l0 -474 q27 -46 73.5 -70 q46.5 -24 114.5 -24 q106 0 155.5 83 q49.5 83 49.5 225 l0 21 Z" /><glyph glyph-name="dotlessi" unicode="&#x131;" d="M425 0 l-292 0 l0 1082 l292 0 l0 -1082 Z" /><glyph glyph-name="OE" unicode="&#x152;" d="M1858 0 l-867 0 q-92 -10 -156.5 -15.5 q-64.5 -5.5 -131.5 -5.5 q-270 0 -438 165.5 q-168 165.5 -168 431.5 l0 304 q0 265 167 431 q167 166 437 166 q69 0 140 -6 q71 -6 150 -15 l865 0 l0 -225 l-703 0 l0 -366 l603 0 l0 -225 l-603 0 l0 -416 l705 0 l0 -224 ZM703 204 q40 0 79.5 2 q39.5 2 78.5 7 l0 1030 q-45 4 -83.5 6.5 q-38.5 2.5 -76.5 2.5 q-148 0 -230.5 -94.5 q-82.5 -94.5 -82.5 -275.5 l0 -306 q0 -182 83.5 -277 q83.5 -95 231.5 -95 Z" /><glyph glyph-name="oe" unicode="&#x153;" d="M1369 -21 q-127 0 -228 46 q-101 46 -169 131 q-67 -85 -167 -131 q-100 -46 -227 -46 q-240 0 -375.5 153.5 q-135.5 153.5 -135.5 397.5 l0 21 q0 242 135 396.5 q135 154.5 374 154.5 q127 0 227 -46.5 q100 -46.5 167 -129.5 q65 84 159.5 130 q94.5 46 213.5 46 q219 0 340 -132 q121 -132 121 -357 l0 -159 l-646 0 l-2 -6 q8 -107 71.5 -176 q63.5 -69 172.5 -69 q97 0 161 19.5 q64 19.5 140 61.5 l79 -180 q-66 -54 -173 -89.5 q-107 -35.5 -238 -35.5 ZM358 530 q0 -148 52 -237.5 q52 -89.5 168 -89.5 q113 0 165.5 90 q52.5 90 52.5 237 l0 21 q0 144 -53 235 q-53 91 -167 91 q-113 0 -165.5 -91.5 q-52.5 -91.5 -52.5 -234.5 l0 -21 ZM1343 877 q-81 0 -128 -62 q-47 -62 -58 -163 l3 -5 l358 0 l0 26 q0 93 -43.5 148.5 q-43.5 55.5 -131.5 55.5 Z" /><glyph glyph-name="circumflex" unicode="&#x2c6;" d="M875 1275 l0 -23 l-232 0 l-140 133 l-139 -133 l-227 0 l0 26 l282 240 l169 0 l287 -243 Z" /><glyph glyph-name="ring" unicode="&#x2da;" d="M129 1298 q0 83 61.5 139.5 q61.5 56.5 151.5 56.5 q88 0 149 -56.5 q61 -56.5 61 -139.5 q0 -84 -60.5 -138 q-60.5 -54 -149.5 -54 q-90 0 -151.5 54 q-61.5 54 -61.5 138 ZM245 1298 q0 -43 28 -70.5 q28 -27.5 69 -27.5 q41 0 67.5 27.5 q26.5 27.5 26.5 70.5 q0 44 -26.5 72 q-26.5 28 -67.5 28 q-42 0 -69.5 -28.5 q-27.5 -28.5 -27.5 -71.5 Z" /><glyph glyph-name="tilde" unicode="&#x2dc;" d="M868 1484 q0 -96 -59.5 -163.5 q-59.5 -67.5 -150.5 -67.5 q-70 0 -158.5 43.5 q-88.5 43.5 -140.5 43.5 q-36 0 -60 -32.5 q-24 -32.5 -24 -77.5 l-156 42 q0 94 59.5 163.5 q59.5 69.5 149.5 69.5 q56 0 152 -43.5 q96 -43.5 148 -43.5 q34 0 60 32 q26 32 26 79 l154 -45 Z" /><glyph glyph-name="uni0402" unicode="&#x402;" d="M1166 1231 l-476 0 l0 -371 q69 16 129.5 25 q60.5 9 116.5 9 q248 0 393 -116.5 q145 -116.5 145 -336.5 q0 -199 -132 -327.5 q-132 -128.5 -413 -125.5 l-5 2 l-1 205 q153 0 206 64.5 q53 64.5 54 168.5 q0 107 -65 172.5 q-65 65.5 -182 65.5 q-67 0 -126.5 -6 q-59.5 -6 -119.5 -17 l0 -643 l-293 0 l0 1231 l-367 0 l0 225 l1136 0 l0 -225 Z" /><glyph glyph-name="uni0404" unicode="&#x404;" d="M1252 496 l2 -6 q4 -235 -143.5 -372.5 q-147.5 -137.5 -409.5 -137.5 q-263 0 -427 169 q-164 169 -164 435 l0 289 q0 265 160 435 q160 170 416 170 q270 0 422 -138.5 q152 -138.5 148 -377.5 l-2 -6 l-284 0 q0 144 -69 220.5 q-69 76.5 -215 76.5 q-131 0 -208 -106.5 q-77 -106.5 -77 -271.5 l0 -31 l437 0 l0 -226 l-437 0 l0 -34 q0 -167 81 -273.5 q81 -106.5 219 -106.5 q137 0 202.5 73.5 q65.5 73.5 65.5 218.5 l283 0 Z" /><glyph glyph-name="uni0405" unicode="&#x405;" d="M922 380 q0 84 -59.5 135 q-59.5 51 -208.5 96 q-260 75 -393 178 q-133 103 -133 282 q0 179 152.5 292.5 q152.5 113.5 389.5 113.5 q240 0 391 -127.5 q151 -127.5 146 -314.5 l-2 -6 l-283 0 q0 101 -67.5 163.5 q-67.5 62.5 -189.5 62.5 q-117 0 -181 -52 q-64 -52 -64 -133 q0 -74 68.5 -121.5 q68.5 -47.5 236.5 -100.5 q241 -67 365 -177 q124 -110 124 -289 q0 -187 -147.5 -295 q-147.5 -108 -389.5 -108 q-238 0 -415 122.5 q-177 122.5 -172 343.5 l2 6 l284 0 q0 -130 79.5 -190.5 q79.5 -60.5 221.5 -60.5 q119 0 182 49 q63 49 63 131 Z" /><glyph glyph-name="uni0409" unicode="&#x409;" d="M1311 1456 l0 -509 l250 0 q250 0 398 -132.5 q148 -132.5 148 -340.5 q0 -210 -148 -342 q-148 -132 -398 -132 l-542 0 l0 1231 l-386 0 l0 -438 q0 -421 -135.5 -607 q-135.5 -186 -412.5 -186 l-43 0 l0 224 l40 0 q150 0 204.5 123.5 q54.5 123.5 54.5 445.5 l0 663 l970 0 ZM1311 722 l0 -498 l250 0 q122 0 188.5 73 q66.5 73 66.5 179 q0 102 -66.5 174 q-66.5 72 -188.5 72 l-250 0 Z" /><glyph glyph-name="uni040A" unicode="&#x40a;" d="M428 841 l593 0 l0 615 l292 0 l0 -527 l250 0 q251 0 399 -129 q148 -129 148 -334 q0 -206 -148.5 -336 q-148.5 -130 -398.5 -130 l-542 0 l0 616 l-593 0 l0 -616 l-292 0 l0 1456 l292 0 l0 -615 ZM1313 704 l0 -476 l250 0 q123 0 189 69 q66 69 66 171 q0 99 -66 167.5 q-66 68.5 -189 68.5 l-250 0 Z" /><glyph glyph-name="uni040B" unicode="&#x40b;" d="M1150 1231 l-471 0 l0 -323 q59 9 118.5 14.5 q59.5 5.5 107.5 5.5 q267 0 414 -117 q147 -117 147 -359 l0 -452 l-291 0 l0 452 q0 141 -64.5 196 q-64.5 55 -205.5 55 q-48 0 -109 -5.5 q-61 -5.5 -117 -14.5 l0 -683 l-293 0 l0 1231 l-349 0 l0 225 l1113 0 l0 -225 Z" /><glyph glyph-name="uni040F" unicode="&#x40f;" d="M123 1456 l291 0 l0 -1232 l594 0 l0 1232 l292 0 l0 -1456 l-430 0 l0 -360 l-292 0 l0 360 l-455 0 l0 1456 Z" /><glyph glyph-name="uni0411" unicode="&#x411;" d="M1068 1231 l-644 0 l0 -287 l250 0 q251 0 399 -131 q148 -131 148 -339 q0 -210 -148.5 -342 q-148.5 -132 -398.5 -132 l-555 0 l0 1456 l949 0 l0 -225 ZM424 719 l0 -495 l250 0 q123 0 189.5 73 q66.5 73 66.5 179 q0 102 -66.5 172.5 q-66.5 70.5 -189.5 70.5 l-250 0 Z" /><glyph glyph-name="uni0414" unicode="&#x414;" d="M1476 -358 l-264 0 l0 358 l-893 0 l0 -358 l-269 0 l-23 582 l112 0 q78 67 136.5 211.5 q58.5 144.5 68.5 424.5 l40 596 l947 0 l0 -1232 l173 0 l-28 -582 ZM636 860 q-9 -221 -52 -376 q-43 -155 -113 -260 l569 0 l0 1007 l-379 0 l-25 -371 Z" /><glyph glyph-name="uni0416" unicode="&#x416;" d="M1343 608 l-170 0 l0 -608 l-291 0 l0 608 l-174 0 l-326 -608 l-364 0 l458 785 l-434 671 l361 0 l328 -595 l151 0 l0 595 l291 0 l0 -595 l147 0 l321 595 l360 0 l-427 -669 l451 -787 l-363 0 l-319 608 Z" /><glyph glyph-name="uni0417" unicode="&#x417;" d="M667 852 q137 0 203 54 q66 54 66 151 q0 84 -73 139.5 q-73 55.5 -212 55.5 q-109 0 -181 -52.5 q-72 -52.5 -72 -134.5 l-283 0 l-1 6 q-6 181 151 293.5 q157 112.5 386 112.5 q266 0 421 -108 q155 -108 155 -308 q0 -100 -65 -183 q-65 -83 -179 -130 q129 -43 198 -129 q69 -86 69 -211 q0 -201 -166 -315 q-166 -114 -433 -114 q-230 0 -397 107 q-167 107 -161 312 l1 6 l284 0 q0 -85 76.5 -143 q76.5 -58 196.5 -58 q142 0 224.5 58.5 q82.5 58.5 82.5 149.5 q0 115 -73.5 168.5 q-73.5 53.5 -217.5 53.5 l-197 0 l0 219 l197 0 Z" /><glyph glyph-name="uni0418" unicode="&#x418;" d="M1010 1456 l293 0 l0 -1456 l-293 0 l0 971 l-6 1 l-587 -972 l-291 0 l0 1456 l291 0 l0 -970 l6 -1 l587 971 Z" /><glyph glyph-name="uni041B" unicode="&#x41b;" d="M1311 1456 l0 -1456 l-292 0 l0 1231 l-414 0 l0 -438 q0 -422 -127.5 -607.5 q-127.5 -185.5 -392.5 -185.5 l-43 0 l0 224 l40 0 q137 0 184 122 q47 122 47 447 l0 663 l998 0 Z" /><glyph glyph-name="uni0423" unicode="&#x423;" d="M649 809 l23 -77 l6 0 l275 724 l309 0 l-497 -1180 q-64 -143 -149.5 -220 q-85.5 -77 -245.5 -77 q-25 0 -57 1.5 q-32 1.5 -48 3.5 l-2 223 q11 -2 38 -3 q27 -1 41 -1 q80 0 119.5 35 q39.5 35 65.5 106 l22 55 l-513 1057 l315 0 l298 -647 Z" /><glyph glyph-name="uni0424" unicode="&#x424;" d="M988 1325 l3 0 q273 0 445 -166 q172 -166 172 -438 q0 -268 -172.5 -430.5 q-172.5 -162.5 -444.5 -162.5 l-3 0 l0 -188 l-292 0 l0 188 l-6 0 q-274 0 -445.5 162 q-171.5 162 -171.5 429 q0 272 172 439 q172 167 445 167 l6 0 l0 191 l292 0 l0 -191 ZM690 1085 q-154 0 -242 -95.5 q-88 -95.5 -88 -270.5 q0 -170 88 -261 q88 -91 242 -91 l6 0 l0 718 l-6 0 ZM988 1085 l0 -718 l5 0 q152 0 240 92.5 q88 92.5 88 261.5 q0 175 -87.5 269.5 q-87.5 94.5 -240.5 94.5 l-5 0 Z" /><glyph glyph-name="uni0426" unicode="&#x426;" d="M150 1456 l292 0 l0 -1231 l594 0 l0 1231 l292 0 l0 -1231 l177 0 l0 -584 l-292 0 l0 359 l-1063 0 l0 1456 Z" /><glyph glyph-name="uni0427" unicode="&#x427;" d="M1288 1456 l0 -1456 l-293 0 l0 561 q-66 -16 -148 -24.5 q-82 -8.5 -147 -8.5 q-268 0 -414.5 116 q-146.5 116 -146.5 359 l0 453 l292 0 l0 -453 q0 -142 63.5 -196 q63.5 -54 205.5 -54 q62 0 145.5 8.5 q83.5 8.5 149.5 24.5 l0 670 l293 0 Z" /><glyph glyph-name="uni0428" unicode="&#x428;" d="M425 1456 l0 -1232 l412 0 l0 1232 l291 0 l0 -1232 l408 0 l0 1232 l292 0 l0 -1456 l-1695 0 l0 1456 l292 0 Z" /><glyph glyph-name="uni0429" unicode="&#x429;" d="M425 1456 l0 -1232 l412 0 l0 1232 l291 0 l0 -1232 l408 0 l0 1232 l292 0 l0 -1232 l202 0 l-20 -574 l-271 0 l0 350 l-1606 0 l0 1456 l292 0 Z" /><glyph glyph-name="uni042A" unicode="&#x42a;" d="M26 1456 l694 0 l0 -539 l250 0 q253 0 400 -123.5 q147 -123.5 147 -329.5 q0 -209 -148 -336.5 q-148 -127.5 -399 -127.5 l-542 0 l0 1231 l-402 0 l0 225 ZM720 692 l0 -468 l250 0 q123 0 189.5 68.5 q66.5 68.5 66.5 173.5 q0 100 -66 163 q-66 63 -190 63 l-250 0 Z" /><glyph glyph-name="uni042B" unicode="&#x42b;" d="M441 944 l250 0 q251 0 399 -131 q148 -131 148 -339 q0 -210 -148.5 -342 q-148.5 -132 -398.5 -132 l-542 0 l0 1456 l292 0 l0 -512 ZM1661 0 l-292 0 l0 1456 l292 0 l0 -1456 ZM441 719 l0 -495 l250 0 q123 0 189.5 73 q66.5 73 66.5 179 q0 102 -66.5 172.5 q-66.5 70.5 -189.5 70.5 l-250 0 Z" /><glyph glyph-name="uni042C" unicode="&#x42c;" d="M424 917 l250 0 q253 0 400 -123.5 q147 -123.5 147 -329.5 q0 -209 -148 -336.5 q-148 -127.5 -399 -127.5 l-542 0 l0 1456 l292 0 l0 -539 ZM424 692 l0 -468 l250 0 q123 0 189.5 68.5 q66.5 68.5 66.5 173.5 q0 100 -66 163 q-66 63 -190 63 l-250 0 Z" /><glyph glyph-name="uni042D" unicode="&#x42d;" d="M94 974 l-2 6 q-5 232 137.5 365 q142.5 133 399.5 133 q253 0 407.5 -169 q154.5 -169 154.5 -436 l0 -289 q0 -268 -154.5 -436 q-154.5 -168 -407.5 -168 q-259 0 -401 128.5 q-142 128.5 -137 366.5 l2 6 l283 0 q0 -142 60.5 -209.5 q60.5 -67.5 192.5 -67.5 q129 0 199 104.5 q70 104.5 70 273.5 l0 43 l-447 0 l0 225 l447 0 l0 23 q0 168 -70 274 q-70 106 -199 106 q-131 0 -191 -68.5 q-60 -68.5 -60 -210.5 l-284 0 Z" /><glyph glyph-name="uni042E" unicode="&#x42e;" d="M1787 597 q0 -268 -169.5 -443 q-169.5 -175 -440.5 -175 q-269 0 -437 175 q-168 175 -168 443 l0 7 l-126 0 l0 -604 l-292 0 l0 1456 l292 0 l0 -627 l126 0 l0 30 q0 267 167.5 442.5 q167.5 175.5 436.5 175.5 q271 0 441 -175.5 q170 -175.5 170 -442.5 l0 -262 ZM1495 861 q0 170 -85 279 q-85 109 -234 109 q-149 0 -231 -108.5 q-82 -108.5 -82 -279.5 l0 -264 q0 -173 83 -282 q83 -109 231 -109 q150 0 234 109 q84 109 84 282 l0 264 Z" /><glyph glyph-name="uni042F" unicode="&#x42f;" d="M298 0 l-315 0 l315 624 q-115 61 -173 156.5 q-58 95.5 -58 228.5 q0 215 142 331 q142 116 394 116 l504 0 l0 -1456 l-292 0 l0 534 l-250 0 l-267 -534 ZM815 1231 l-212 0 q-121 0 -182.5 -60.5 q-61.5 -60.5 -61.5 -173.5 q0 -113 63 -181.5 q63 -68.5 181 -68.5 l212 0 l0 484 Z" /><glyph glyph-name="uni0431" unicode="&#x431;" d="M619 1022 q228 0 357 -140.5 q129 -140.5 129 -363.5 l0 -21 q0 -230 -135.5 -374 q-135.5 -144 -374.5 -144 q-240 0 -375.5 144 q-135.5 144 -135.5 374 l0 145 q1 356 139 549 q138 193 361 237 q97 16 143.5 42.5 q46.5 26.5 46.5 86.5 l226 0 l3 -6 q4 -194 -89 -257 q-93 -63 -317 -98 q-112 -19 -178.5 -88 q-66.5 -69 -85.5 -192 l4 -5 q55 49 128.5 80 q73.5 31 153.5 31 ZM593 797 q-113 0 -165 -78 q-52 -78 -52 -201 l0 -21 q0 -133 52 -213.5 q52 -80.5 167 -80.5 q113 0 165.5 80.5 q52.5 80.5 52.5 213.5 l0 21 q0 123 -53 201 q-53 78 -167 78 Z" /><glyph glyph-name="uni0432" unicode="&#x432;" d="M127 0 l0 1082 l452 0 q216 0 336.5 -76 q120.5 -76 120.5 -226 q0 -76 -50.5 -135 q-50.5 -59 -143.5 -90 q123 -24 186.5 -90.5 q63.5 -66.5 63.5 -155.5 q0 -153 -114.5 -231 q-114.5 -78 -328.5 -78 l-522 0 ZM419 451 l0 -229 l230 0 q77 0 114 28.5 q37 28.5 37 84.5 q0 56 -35.5 86 q-35.5 30 -115.5 30 l-230 0 ZM419 641 l168 0 q81 0 119.5 26 q38.5 26 38.5 78 q0 59 -41 86.5 q-41 27.5 -125 27.5 l-160 0 l0 -218 Z" /><glyph glyph-name="uni0433" unicode="&#x433;" d="M846 856 l-447 0 l0 -856 l-292 0 l0 1082 l739 0 l0 -226 Z" /><glyph glyph-name="uni0434" unicode="&#x434;" d="M127 226 q100 103 134.5 203.5 q34.5 100.5 39.5 287.5 l5 365 l798 0 l0 -858 l156 0 l-20 -548 l-271 0 l0 324 l-639 0 l0 -324 l-272 0 l-25 550 l94 0 ZM592 717 q-7 -161 -40.5 -282.5 q-33.5 -121.5 -90.5 -209.5 l352 0 l0 624 l-219 0 l-2 -132 Z" /><glyph glyph-name="uni0436" unicode="&#x436;" d="M1152 408 l-127 0 l0 -408 l-291 0 l0 408 l-126 0 l-209 -408 l-374 0 l350 587 l-332 495 l368 0 l217 -408 l106 0 l0 408 l291 0 l0 -408 l107 0 l218 408 l368 0 l-332 -495 l349 -587 l-374 0 l-209 408 Z" /><glyph glyph-name="uni0437" unicode="&#x437;" d="M534 646 q74 0 109 31 q35 31 35 88 q0 52 -33.5 88 q-33.5 36 -109.5 36 q-71 0 -114.5 -32 q-43.5 -32 -43.5 -86 l-283 0 l-2 6 q-6 145 118 234.5 q124 89.5 310 89.5 q208 0 328.5 -82 q120.5 -82 120.5 -233 q0 -73 -44 -133.5 q-44 -60.5 -122 -95.5 q90 -32 137.5 -95.5 q47.5 -63.5 47.5 -155.5 q0 -152 -129.5 -239 q-129.5 -87 -338.5 -87 q-185 0 -317.5 86 q-132.5 86 -126.5 248 l1 6 l283 0 q0 -56 46 -93 q46 -37 130 -37 q81 0 121 39 q40 39 40 96 q0 70 -40 102.5 q-40 32.5 -123 32.5 l-156 0 l0 186 l156 0 Z" /><glyph glyph-name="uni0438" unicode="&#x438;" d="M758 1082 l291 0 l0 -1082 l-291 0 l0 660 l-6 1 l-353 -661 l-292 0 l0 1082 l292 0 l0 -658 l6 -1 l353 659 Z" /><glyph glyph-name="uni043A" unicode="&#x43a;" d="M533 405 l-112 0 l0 -405 l-292 0 l0 1082 l292 0 l0 -412 l102 0 l233 412 l369 0 l-353 -510 l385 -572 l-389 0 l-235 405 Z" /><glyph glyph-name="uni043B" unicode="&#x43b;" d="M1049 1082 l0 -1082 l-291 0 l0 856 l-260 0 l0 -235 q0 -320 -98 -470.5 q-98 -150.5 -335 -150.5 l-47 0 l-3 230 l31 1 q100 0 130 82 q30 82 30 308 l0 461 l843 0 Z" /><glyph glyph-name="uni043C" unicode="&#x43c;" d="M766 340 l6 0 l279 742 l365 0 l0 -1082 l-291 0 l0 646 l-6 1 l-251 -647 l-196 0 l-245 633 l-6 -1 l0 -632 l-292 0 l0 1082 l362 0 l275 -742 Z" /><glyph glyph-name="uni043D" unicode="&#x43d;" d="M1047 0 l-292 0 l0 420 l-356 0 l0 -420 l-292 0 l0 1082 l292 0 l0 -438 l356 0 l0 438 l292 0 l0 -1082 Z" /><glyph glyph-name="uni043F" unicode="&#x43f;" d="M1049 0 l-292 0 l0 856 l-358 0 l0 -856 l-292 0 l0 1082 l942 0 l0 -1082 Z" /><glyph glyph-name="uni0441" unicode="&#x441;" d="M566 203 q78 0 125 45.5 q47 45.5 47 121.5 l265 0 l3 -6 q4 -164 -123.5 -274.5 q-127.5 -110.5 -316.5 -110.5 q-242 0 -373 153 q-131 153 -131 393 l0 30 q0 239 130.5 393 q130.5 154 372.5 154 q200 0 322.5 -114 q122.5 -114 118.5 -300 l-2 -6 l-266 0 q0 84 -46 139.5 q-46 55.5 -127 55.5 q-116 0 -163.5 -90 q-47.5 -90 -47.5 -232 l0 -30 q0 -145 47.5 -233.5 q47.5 -88.5 164.5 -88.5 Z" /><glyph glyph-name="uni0442" unicode="&#x442;" d="M1028 859 l-346 0 l0 -859 l-293 0 l0 859 l-341 0 l0 223 l980 0 l0 -223 Z" /><glyph glyph-name="uni0444" unicode="&#x444;" d="M68 532 q0 256 104.5 413 q104.5 157 295.5 157 q37 0 69.5 -7 q32.5 -7 62.5 -19 l0 484 l291 0 l0 -486 q30 13 64 20.5 q34 7.5 73 7.5 q191 0 296 -156.5 q105 -156.5 105 -413.5 l0 -21 q0 -240 -105 -386 q-105 -146 -294 -146 q-39 0 -74 7 q-35 7 -65 20 l0 -422 l-291 0 l0 420 q-30 -12 -64 -18.5 q-34 -6.5 -70 -6.5 q-190 0 -294 146 q-104 146 -104 386 l0 21 ZM1137 532 q0 154 -45 249.5 q-45 95.5 -140 95.5 q-18 0 -33 -2 q-15 -2 -28 -5 l0 -661 q14 -3 29.5 -4.5 q15.5 -1.5 33.5 -1.5 q96 0 139.5 83 q43.5 83 43.5 225 l0 21 ZM359 511 q0 -143 42 -225.5 q42 -82.5 139 -82.5 q15 0 30 1 q15 1 30 4 l0 663 q-14 3 -28.5 4.5 q-14.5 1.5 -29.5 1.5 q-96 0 -139.5 -95.5 q-43.5 -95.5 -43.5 -249.5 l0 -21 Z" /><glyph glyph-name="uni0446" unicode="&#x446;" d="M107 1082 l292 0 l0 -858 l358 0 l0 858 l292 0 l0 -858 l156 0 l0 -582 l-291 0 l0 358 l-807 0 l0 1082 Z" /><glyph glyph-name="uni0447" unicode="&#x447;" d="M1041 0 l-292 0 l0 343 q-37 -8 -75.5 -11.5 q-38.5 -3.5 -72.5 -3.5 q-239 0 -368.5 102 q-129.5 102 -129.5 312 l0 340 l292 0 l0 -340 q0 -107 47 -148 q47 -41 159 -41 q37 0 73.5 4 q36.5 4 74.5 12 l0 513 l292 0 l0 -1082 Z" /><glyph glyph-name="uni0448" unicode="&#x448;" d="M399 1082 l0 -858 l294 0 l0 858 l293 0 l0 -858 l294 0 l0 858 l292 0 l0 -1082 l-1465 0 l0 1082 l292 0 Z" /><glyph glyph-name="uni0449" unicode="&#x449;" d="M399 1082 l0 -858 l294 0 l0 858 l293 0 l0 -858 l294 0 l0 858 l292 0 l0 -853 l223 0 l0 -589 l-292 0 l0 360 l-1396 0 l0 1082 l292 0 Z" /><glyph glyph-name="uni044A" unicode="&#x44a;" d="M634 759 l203 0 q219 0 344 -104.5 q125 -104.5 125 -276.5 q0 -168 -125.5 -273 q-125.5 -105 -343.5 -105 l-495 0 l0 856 l-308 0 l0 226 l600 0 l0 -323 ZM634 535 l0 -312 l203 0 q90 0 134 43.5 q44 43.5 44 110.5 q0 68 -44 113 q-44 45 -134 45 l-203 0 Z" /><glyph glyph-name="uni044B" unicode="&#x44b;" d="M442 732 l203 0 q218 0 343 -100.5 q125 -100.5 125 -263.5 q0 -165 -125 -266.5 q-125 -101.5 -343 -101.5 l-496 0 l0 1082 l293 0 l0 -350 ZM1507 0 l-292 0 l0 1082 l292 0 l0 -1082 ZM442 508 l0 -285 l203 0 q89 0 133 40 q44 40 44 103 q0 61 -44 101.5 q-44 40.5 -133 40.5 l-203 0 Z" /><glyph glyph-name="uni044C" unicode="&#x44c;" d="M422 732 l203 0 q218 0 343 -100.5 q125 -100.5 125 -263.5 q0 -165 -125 -266.5 q-125 -101.5 -343 -101.5 l-496 0 l0 1082 l293 0 l0 -350 ZM422 508 l0 -285 l203 0 q89 0 133 40 q44 40 44 103 q0 61 -44 101.5 q-44 40.5 -133 40.5 l-203 0 Z" /><glyph glyph-name="uni044D" unicode="&#x44d;" d="M505 877 q-77 0 -123 -46 q-46 -46 -46 -120 l-266 0 l-2 6 q-5 163 122 274 q127 111 315 111 q237 0 369 -154.5 q132 -154.5 132 -392.5 l0 -30 q0 -238 -132 -392 q-132 -154 -368 -154 q-199 0 -321 113.5 q-122 113.5 -117 300.5 l2 6 l266 0 q0 -85 45 -140.5 q45 -55.5 125 -55.5 q96 0 144.5 69.5 q48.5 69.5 56.5 180.5 l-3 5 l-281 0 l0 175 l280 0 l2 5 q-8 106 -56.5 172.5 q-48.5 66.5 -143.5 66.5 Z" /><glyph glyph-name="uni044E" unicode="&#x44e;" d="M425 663 l156 0 q30 198 161 318.5 q131 120.5 340 120.5 q240 0 376 -154 q136 -154 136 -397 l0 -21 q0 -244 -135.5 -397.5 q-135.5 -153.5 -374.5 -153.5 q-216 0 -348.5 125.5 q-132.5 125.5 -157.5 333.5 l-153 0 l0 -438 l-292 0 l0 1082 l292 0 l0 -419 ZM864 530 q0 -148 52 -237.5 q52 -89.5 168 -89.5 q113 0 165.5 90 q52.5 90 52.5 237 l0 21 q0 144 -53 235 q-53 91 -167 91 q-113 0 -165.5 -91.5 q-52.5 -91.5 -52.5 -234.5 l0 -21 Z" /><glyph glyph-name="uni044F" unicode="&#x44f;" d="M1024 1082 l0 -1082 l-290 0 l0 379 l-176 0 l-212 -379 l-295 0 l239 427 q-99 44 -152.5 121 q-53.5 77 -53.5 175 q0 158 125.5 258.5 q125.5 100.5 338.5 100.5 l476 0 ZM376 715 q0 -56 43.5 -97.5 q43.5 -41.5 123.5 -41.5 l191 0 l0 283 l-186 0 q-82 0 -127 -44 q-45 -44 -45 -100 Z" /><glyph glyph-name="uni0452" unicode="&#x452;" d="M656 1208 l-259 0 l0 -263 q51 74 125 115.5 q74 41.5 164 41.5 q169 0 265.5 -112.5 q96.5 -112.5 96.5 -347.5 l0 -172 l1 0 l0 -511 q0 -190 -101 -293 q-101 -103 -281 -103 q-40 0 -74 4 q-34 4 -70 13 l14 220 q22 -6 47 -9 q25 -3 52 -3 q57 0 88.5 44.5 q31.5 44.5 31.5 126.5 l0 685 q0 126 -44.5 178.5 q-44.5 52.5 -132.5 52.5 q-60 0 -106 -21.5 q-46 -21.5 -76 -60.5 l0 -793 l-292 0 l0 1208 l-120 0 l0 181 l120 0 l0 171 l292 0 l0 -171 l259 0 l0 -181 Z" /><glyph glyph-name="uni0454" unicode="&#x454;" d="M576 203 q78 0 125 45.5 q47 45.5 47 121.5 l265 0 l3 -6 q4 -164 -123.5 -274.5 q-127.5 -110.5 -316.5 -110.5 q-242 0 -373 153 q-131 153 -131 393 l0 30 q0 239 130.5 393 q130.5 154 372.5 154 q200 0 322.5 -114 q122.5 -114 118.5 -300 l-2 -6 l-266 0 q0 84 -46 139.5 q-46 55.5 -127 55.5 q-102 0 -151 -71 q-49 -71 -54 -184 l3 -5 l287 0 l0 -175 l-285 0 l-2 -5 q7 -106 55 -170 q48 -64 148 -64 Z" /><glyph glyph-name="uni0459" unicode="&#x459;" d="M1050 1082 l0 -349 l203 0 q218 0 343.5 -101 q125.5 -101 125.5 -264 q0 -165 -125.5 -266.5 q-125.5 -101.5 -343.5 -101.5 l-495 0 l0 856 l-232 0 l0 -235 q0 -316 -106 -468.5 q-106 -152.5 -345 -152.5 l-47 0 l-3 227 l31 0 q90 0 134 96 q44 96 44 298 l0 461 l816 0 ZM1050 508 l0 -286 l203 0 q90 0 134 42 q44 42 44 106 q0 60 -44 99 q-44 39 -134 39 l-203 0 Z" /><glyph glyph-name="uni045A" unicode="&#x45a;" d="M399 665 l356 0 l0 417 l292 0 l0 -350 l203 0 q218 0 343 -100.5 q125 -100.5 125 -263.5 q0 -165 -125 -266.5 q-125 -101.5 -343 -101.5 l-495 0 l0 441 l-356 0 l0 -441 l-292 0 l0 1082 l292 0 l0 -417 ZM1047 508 l0 -286 l203 0 q89 0 133 42 q44 42 44 106 q0 60 -44 99 q-44 39 -133 39 l-203 0 Z" /><glyph glyph-name="uni045B" unicode="&#x45b;" d="M700 1211 l-303 0 l0 -266 q51 74 125 115.5 q74 41.5 164 41.5 q169 0 265.5 -112.5 q96.5 -112.5 96.5 -347.5 l0 -642 l-292 0 l0 644 q0 126 -44.5 178.5 q-44.5 52.5 -132.5 52.5 q-60 0 -106 -21.5 q-46 -21.5 -76 -60.5 l0 -793 l-292 0 l0 1211 l-76 0 l0 181 l76 0 l0 168 l292 0 l0 -168 l303 0 l0 -181 Z" /><glyph glyph-name="uni045F" unicode="&#x45f;" d="M399 1082 l0 -858 l358 0 l0 858 l292 0 l0 -1082 l-325 0 l0 -358 l-291 0 l0 358 l-326 0 l0 1082 l292 0 Z" /><glyph glyph-name="uni0490" unicode="&#x490;" d="M1095 1231 l-684 0 l0 -1231 l-292 0 l0 1456 l684 0 l0 368 l292 0 l0 -593 Z" /><glyph glyph-name="uni0491" unicode="&#x491;" d="M887 857 l-41 0 l0 -1 l-447 0 l0 -856 l-292 0 l0 1082 l489 0 l0 315 l291 0 l0 -540 Z" /><glyph glyph-name="uni04B0" unicode="&#x4b0;" d="M642 785 l6 0 l319 671 l320 0 l-401 -757 l104 0 l0 -181 l-200 0 l-3 -6 l0 -512 l-291 0 l0 518 l-177 0 l0 181 l86 0 l-400 757 l320 0 l317 -671 Z" /><glyph glyph-name="uni04B1" unicode="&#x4b1;" d="M867 9 l-198 0 l0 -426 l-292 0 l0 426 l-181 0 l0 181 l123 0 l-303 892 l305 0 l182 -679 l19 -100 l6 0 l20 100 l178 679 l305 0 l-304 -892 l140 0 l0 -181 Z" /><glyph glyph-name="quoteleft" unicode="&#x2018;" d="M50 1207 l162 353 l143 0 l-60 -352 l0 -193 l-245 0 l0 192 Z" /><glyph glyph-name="quoteright" unicode="&#x2019;" d="M363 1366 l-162 -350 l-144 0 l60 349 l0 195 l246 0 l0 -194 Z" /><glyph glyph-name="quotesinglbase" unicode="&#x201a;" d="M356 19 l-147 -282 l-159 0 l60 266 l0 284 l246 0 l0 -268 Z" /><glyph glyph-name="quotedblbase" unicode="&#x201e;" d="M340 55 l-162 -280 l-128 0 l60 268 l0 255 l230 0 l0 -243 ZM682 55 l-162 -280 l-129 0 l60 276 l0 247 l231 0 l0 -243 Z" /><glyph glyph-name="bullet" unicode="&#x2022;" d="M135 806 q0 100 65 164 q65 64 172 64 q110 0 175 -63.5 q65 -63.5 65 -164.5 l0 -90 q0 -101 -64.5 -163 q-64.5 -62 -173.5 -62 q-109 0 -174 62.5 q-65 62.5 -65 162.5 l0 90 Z" /><glyph glyph-name="guilsinglleft" unicode="&#x2039;" d="M335 550 l240 -399 l-187 0 l-280 390 l0 19 l280 390 l187 0 l-240 -400 Z" /><glyph glyph-name="guilsinglright" unicode="&#x203a;" d="M268 950 l280 -390 l0 -19 l-280 -390 l-188 0 l239 399 l-239 400 l188 0 Z" /><glyph glyph-name="fraction" unicode="&#x2044;" d="M171 109 l-142 75 l711 1138 l142 -75 l-711 -1138 Z" /><glyph glyph-name="uni2074" unicode="&#x2074;" d="M748 900 l110 0 l0 -170 l-110 0 l0 -170 l-221 0 l0 170 l-469 0 l-4 124 l468 623 l226 0 l0 -577 ZM527 900 l0 297 l-6 2 l-227 -299 l233 0 Z" /><glyph glyph-name="Euro" unicode="&#x20ac;" d="M937 455 l-428 0 l0 -8 q0 -99 67.5 -171.5 q67.5 -72.5 187.5 -72.5 q58 0 113.5 8.5 q55.5 8.5 106.5 25.5 l21 -227 q-57 -15 -118 -23 q-61 -8 -123 -8 q-245 0 -396 137.5 q-151 137.5 -151 330.5 l0 8 l-146 0 l0 200 l146 0 l0 116 l-146 0 l0 200 l146 0 l0 13 q0 203 150.5 348 q150.5 145 394.5 145 q60 0 117.5 -8 q57.5 -8 125.5 -23 l-21 -229 q-53 16 -109.5 25.5 q-56.5 9.5 -112.5 9.5 q-118 0 -185.5 -80.5 q-67.5 -80.5 -67.5 -185.5 l0 -15 l428 0 l0 -200 l-428 0 l0 -116 l428 0 l0 -200 Z" /><glyph glyph-name="minus" unicode="&#x2212;" d="M980 601 l-834 0 l0 228 l834 0 l0 -228 Z" /></font>
</defs>
</svg>
