<?xml version="1.0" encoding="utf-8"?>
<!DOCTYPE svg PUBLIC "-//W3C//DTD SVG 1.1//EN" "http://www.w3.org/Graphics/SVG/1.1/DTD/svg11.dtd">
<svg version="1.1" xmlns="http://www.w3.org/2000/svg" xmlns:xlink="http://www.w3.org/1999/xlink" width="128" height="128" viewBox="0 0 128 128">
	<path d="M109.269 17.919c-3.202-2.813-8.106-2.455-11.119 0.558l-34.179 34.205-34.336-34.362c-3.093-3.093-8.108-3.093-11.201 0l-0.113 0.113c-3.092 3.093-3.092 8.107 0 11.201l34.34 34.366-34.34 34.366c-3.092 3.093-3.092 8.108 0 11.201l0.113 0.113c3.093 3.093 8.107 3.093 11.201 0l34.337-34.363 34.179 34.205c3.013 3.013 7.917 3.37 11.119 0.558 3.507-3.081 3.637-8.429 0.388-11.678l-34.379-34.403 34.378-34.404c3.249-3.249 3.119-8.596-0.388-11.677z" fill="#d0d0d0"></path>
</svg>
